<svg width="47" height="46" viewBox="0 0 47 46" fill="none" xmlns="http://www.w3.org/2000/svg">
<rect x="0.5" width="46" height="46" rx="23" fill="#171717"/>
<g clip-path="url(#clip0_11167_21398)">
<path d="M29.3678 18.7638C29.202 18.7165 29.0506 18.6285 28.9275 18.5078C28.8044 18.3871 28.7134 18.2375 28.6629 18.0727C28.3822 17.1212 27.9113 16.2366 27.2789 15.4723C26.6464 14.7081 25.8655 14.0801 24.9833 13.6264C24.1011 13.1727 23.1361 12.9027 22.1465 12.8327C21.157 12.7627 20.1636 12.8943 19.2263 13.2193C18.2891 13.5444 17.4276 14.0562 16.6938 14.7238C15.9601 15.3915 15.3695 16.201 14.9577 17.1035C14.5459 18.006 14.3214 18.9827 14.298 19.9744C14.2745 20.9661 14.4525 21.9523 14.8212 22.8732C14.9059 23.067 14.9241 23.2834 14.8731 23.4887C14.822 23.6939 14.7045 23.8765 14.5389 24.0081C13.809 24.5498 13.2391 25.2788 12.8896 26.1179C12.54 26.957 12.4239 27.875 12.5534 28.7747C12.7555 29.991 13.3869 31.0946 14.3332 31.8851C15.2794 32.6756 16.4777 33.1006 17.7105 33.0831H22.5845C22.8276 33.0831 23.0607 32.9865 23.2326 32.8146C23.4045 32.6427 23.5011 32.4095 23.5011 32.1664C23.5011 31.9233 23.4045 31.6901 23.2326 31.5182C23.0607 31.3463 22.8276 31.2497 22.5845 31.2497H17.7105C16.9188 31.2689 16.1464 31.0039 15.5332 30.5026C14.9201 30.0013 14.5069 29.2969 14.3684 28.5171C14.2806 27.944 14.3517 27.3577 14.5741 26.8222C14.7966 26.2867 15.1617 25.8225 15.6297 25.4802C16.1213 25.1128 16.477 24.5925 16.6407 24.0009C16.8045 23.4094 16.7671 22.7803 16.5345 22.2123C16.0744 20.9975 16.0508 19.6605 16.4675 18.4302C16.8005 17.4663 17.3967 16.615 18.1886 15.9727C18.9805 15.3303 19.9365 14.9225 20.9482 14.7956C21.1829 14.7654 21.4193 14.75 21.6559 14.7497C22.8412 14.7458 23.9959 15.126 24.947 15.8332C25.8982 16.5405 26.5947 17.5368 26.9322 18.6731C27.064 19.1061 27.3013 19.4995 27.623 19.8179C27.9446 20.1364 28.3404 20.3698 28.7747 20.4972C29.8376 20.8116 30.7791 21.4431 31.4731 22.3073C32.1671 23.1715 32.5806 24.2271 32.6582 25.3327C32.7358 26.4384 32.4737 27.5414 31.9071 28.494C31.3405 29.4466 30.4964 30.2034 29.4879 30.6631C29.3386 30.7395 29.2138 30.8563 29.1278 31.0003C29.0417 31.1442 28.9978 31.3094 29.0011 31.4771C28.9993 31.6287 29.0357 31.7785 29.1068 31.9124C29.178 32.0464 29.2816 32.1604 29.4083 32.2439C29.5349 32.3274 29.6805 32.3777 29.8317 32.3903C29.9828 32.4028 30.1348 32.3772 30.2735 32.3158C34.063 30.4944 36.1218 25.703 32.9135 21.0738C32.0301 19.9215 30.7788 19.1063 29.3678 18.7638Z" fill="#FFD60A"/>
<path d="M29.6472 27.3149C29.8191 27.143 29.9156 26.9099 29.9156 26.6668C29.9156 26.4238 29.8191 26.1907 29.6472 26.0188L28.1934 24.5649C27.6777 24.0494 26.9784 23.7598 26.2492 23.7598C25.52 23.7598 24.8206 24.0494 24.3049 24.5649L22.8511 26.0188C22.6841 26.1916 22.5917 26.4232 22.5938 26.6635C22.5959 26.9039 22.6923 27.1338 22.8622 27.3038C23.0322 27.4737 23.2621 27.5701 23.5025 27.5722C23.7428 27.5743 23.9744 27.4819 24.1472 27.3149L25.3325 26.1297V33.0835C25.3325 33.3266 25.4291 33.5598 25.601 33.7317C25.7729 33.9036 26.006 34.0002 26.2492 34.0002C26.4923 34.0002 26.7254 33.9036 26.8973 33.7317C27.0692 33.5598 27.1658 33.3266 27.1658 33.0835V26.1297L28.3511 27.3149C28.523 27.4868 28.7561 27.5833 28.9992 27.5833C29.2422 27.5833 29.4753 27.4868 29.6472 27.3149Z" fill="#FFD60A"/>
</g>
<defs>
<clipPath id="clip0_11167_21398">
<rect width="22" height="22" fill="white" transform="translate(12.5 12)"/>
</clipPath>
</defs>
</svg>
