<svg width="16" height="25" viewBox="0 0 16 25" fill="none" xmlns="http://www.w3.org/2000/svg">
<path d="M8 16.5C6.41775 16.5 4.87103 16.0308 3.55544 15.1517C2.23985 14.2727 1.21447 13.0233 0.608967 11.5615C0.00346625 10.0997 -0.15496 8.49112 0.153721 6.93927C0.462403 5.38743 1.22433 3.96197 2.34315 2.84315C3.46197 1.72433 4.88743 0.962403 6.43928 0.653721C7.99113 0.34504 9.59966 0.503466 11.0615 1.10897C12.5233 1.71447 13.7727 2.73985 14.6518 4.05544C15.5308 5.37103 16 6.91775 16 8.49999C15.9976 10.621 15.154 12.6544 13.6542 14.1542C12.1545 15.654 10.121 16.4976 8 16.5ZM8 18.5C5.83339 18.499 3.72645 17.79 2 16.481V22C2 22.4709 2.13301 22.9323 2.38374 23.331C2.63446 23.7296 2.99269 24.0494 3.41717 24.2533C3.84164 24.4573 4.31511 24.5373 4.78303 24.4839C5.25095 24.4306 5.69429 24.2462 6.062 23.952L7.688 22.652C7.7766 22.5812 7.88662 22.5427 8 22.5427C8.11339 22.5427 8.2234 22.5812 8.312 22.652L9.938 23.952C10.3057 24.2462 10.7491 24.4306 11.217 24.4839C11.6849 24.5373 12.1584 24.4573 12.5828 24.2533C13.0073 24.0494 13.3656 23.7296 13.6163 23.331C13.867 22.9323 14 22.4709 14 22V16.481C12.2735 17.7899 10.1666 18.4989 8 18.5Z" fill="#118AB2"/>
</svg>
