<svg width="160" height="32" viewBox="0 0 160 32" fill="none" xmlns="http://www.w3.org/2000/svg">
<g clip-path="url(#clip0_78996_591)">
<path fill-rule="evenodd" clip-rule="evenodd" d="M16 32C24.8366 32 32 24.8365 32 16C32 7.16344 24.8366 0 16 0C7.16344 0 0 7.16344 0 16C0 24.8365 7.16344 32 16 32ZM18.6074 9.83905C19.2066 10.2804 19.5457 10.8996 19.6247 11.6967H23.7235C23.7037 10.4912 23.3811 9.43062 22.7556 8.51497C22.13 7.5993 21.2543 6.88456 20.1284 6.37074C19.0091 5.85691 17.6988 5.6 16.1975 5.6C14.7226 5.6 13.4058 5.85691 12.2469 6.37074C11.0881 6.88456 10.1761 7.5993 9.51111 8.51497C8.85267 9.43062 8.52675 10.5011 8.53333 11.7264C8.52675 13.2217 9.01728 14.4108 10.0049 15.2935C10.9926 16.1762 12.3391 16.8251 14.0444 17.2401L16.2469 17.7934C16.9844 17.9713 17.6066 18.1689 18.1136 18.3863C18.6272 18.6037 19.0156 18.8672 19.279 19.1768C19.549 19.4864 19.684 19.8685 19.684 20.323C19.684 20.8105 19.5358 21.242 19.2395 21.6175C18.9432 21.993 18.5251 22.2861 17.9852 22.4969C17.4519 22.7077 16.823 22.8131 16.0988 22.8131C15.3613 22.8131 14.6996 22.7011 14.1136 22.4771C13.5342 22.2466 13.07 21.9073 12.721 21.4594C12.3786 21.0048 12.1844 20.4383 12.1383 19.7598H8C8.03292 21.2156 8.38518 22.4376 9.05679 23.4257C9.73498 24.4073 10.6765 25.1484 11.8815 25.649C13.093 26.1497 14.5152 26.4 16.1481 26.4C17.7942 26.4 19.2 26.153 20.3654 25.6589C21.5374 25.1583 22.4329 24.4567 23.0519 23.5542C23.6774 22.6451 23.9934 21.5714 24 20.3329C23.9934 19.4897 23.8387 18.742 23.5358 18.0899C23.2395 17.4377 22.8214 16.8712 22.2815 16.3903C21.7416 15.9094 21.1029 15.5043 20.3654 15.1749C19.628 14.8455 18.8181 14.582 17.9358 14.3844L16.1185 13.9496C15.6774 13.8508 15.2626 13.7323 14.8741 13.5939C14.4856 13.449 14.1432 13.281 13.8469 13.09C13.5506 12.8924 13.3169 12.6585 13.1457 12.3884C12.9811 12.1183 12.9053 11.8021 12.9185 11.4398C12.9185 11.005 13.0436 10.6164 13.2938 10.2738C13.5506 9.93127 13.9193 9.66448 14.4 9.47344C14.8807 9.27582 15.47 9.17701 16.1679 9.17701C17.1951 9.17701 18.0082 9.39769 18.6074 9.83905Z" fill="#F9F9F9"/>
<path d="M44.5641 22.1547C43.4412 22.1547 42.491 22.0057 41.7136 21.7078C40.9485 21.3974 40.3254 20.9939 39.8441 20.4973C39.3752 20.0007 39.0235 19.4606 38.7891 18.8771C38.567 18.2812 38.4374 17.6977 38.4004 17.1266H41.2879C41.3126 17.5735 41.4483 18.0018 41.6951 18.4115C41.9419 18.8212 42.3121 19.1564 42.8057 19.4172C43.2993 19.6779 43.9162 19.8082 44.6566 19.8082C45.4587 19.8082 46.051 19.6468 46.4335 19.3241C46.8284 18.9888 47.0258 18.5543 47.0258 18.0205C47.0258 17.5114 46.8531 17.0955 46.5076 16.7727C46.1744 16.4499 45.7302 16.1954 45.1749 16.0092L43.0833 15.3015C42.417 15.0781 41.7753 14.8049 41.1583 14.4822C40.5537 14.1469 40.0539 13.7124 39.659 13.1786C39.2642 12.6323 39.0667 11.937 39.0667 11.0928C39.0667 10.2238 39.2827 9.49127 39.7146 8.89534C40.1588 8.29942 40.7634 7.84626 41.5285 7.53589C42.3059 7.22551 43.1944 7.07032 44.1939 7.07032C45.4772 7.07032 46.4891 7.28758 47.2294 7.72211C47.9698 8.15664 48.5066 8.70912 48.8398 9.37953C49.1853 10.0375 49.3951 10.7266 49.4691 11.4467H46.5816C46.5569 11.099 46.4582 10.77 46.2855 10.4597C46.125 10.1369 45.8659 9.87614 45.5081 9.6775C45.1502 9.47885 44.669 9.37953 44.0643 9.37953C43.3856 9.37953 42.8797 9.52231 42.5465 9.80786C42.2257 10.0934 42.0653 10.4534 42.0653 10.888C42.0653 11.3597 42.2319 11.7384 42.565 12.024C42.9106 12.3095 43.3671 12.5516 43.9347 12.7502L46.0263 13.4579C46.705 13.6814 47.3467 13.9607 47.9513 14.2959C48.556 14.6311 49.0496 15.0781 49.4321 15.6368C49.827 16.183 50.0244 16.9031 50.0244 17.797C50.0244 19.1502 49.5431 20.2179 48.5806 21.0001C47.6305 21.7698 46.2916 22.1547 44.5641 22.1547Z" fill="#F9F9F9"/>
<path d="M53.7931 21.8754C53.5093 21.5402 53.281 21.1367 53.1083 20.6649C52.9478 20.1931 52.8676 19.4854 52.8676 18.5419V12.8247H51.3498V10.7017H52.9046V7.90834H55.8477V10.7017H57.6431V12.8247H55.8477V18.2253C55.8477 19.2061 55.9587 19.9572 56.1808 20.4787C56.403 21.0001 56.6683 21.4284 56.9767 21.7636V21.8754H53.7931Z" fill="#F9F9F9"/>
<path d="M63.1517 22.1547C61.9177 22.1547 60.9861 21.7636 60.3568 20.9815C59.7274 20.1993 59.4128 19.1378 59.4128 17.797V10.7017H62.4113V17.2942C62.4113 18.0515 62.5471 18.6412 62.8185 19.0633C63.09 19.4854 63.5281 19.6965 64.1327 19.6965C64.8608 19.6965 65.4222 19.411 65.8171 18.8399C66.212 18.2688 66.4094 17.5673 66.4094 16.7355V10.7017H69.4079V21.8754H66.7055V20.1993H66.2613C66.0762 20.758 65.7369 21.2236 65.2433 21.596C64.7497 21.9685 64.0525 22.1547 63.1517 22.1547Z" fill="#F9F9F9"/>
<path d="M75.8435 22.0988C74.8316 22.0988 73.9987 21.8505 73.3447 21.3539C72.6907 20.8449 72.2033 20.1497 71.8824 19.2682C71.5616 18.3867 71.4012 17.3873 71.4012 16.2699C71.4012 15.1153 71.5616 14.1035 71.8824 13.2344C72.2156 12.3654 72.7092 11.6887 73.3632 11.2046C74.0295 10.7204 74.8563 10.4783 75.8435 10.4783C76.5715 10.4783 77.1638 10.6086 77.6204 10.8693C78.0893 11.1301 78.4595 11.4839 78.731 11.9308H79.1752V6.97721H82.1737V21.8754H79.3973V20.4228H78.9531C78.6939 20.8946 78.3176 21.2919 77.824 21.6146C77.3304 21.9374 76.6702 22.0988 75.8435 22.0988ZM76.6949 19.9758C77.4476 19.9758 78.0461 19.6468 78.4903 18.9888C78.9469 18.3184 79.1752 17.4183 79.1752 16.2886C79.1752 15.1464 78.9469 14.2463 78.4903 13.5883C78.0461 12.9303 77.4476 12.6013 76.6949 12.6013C76.0162 12.6013 75.4795 12.9116 75.0846 13.5324C74.702 14.1407 74.5108 15.0595 74.5108 16.2886C74.5108 17.5177 74.702 18.4426 75.0846 19.0633C75.4795 19.6717 76.0162 19.9758 76.6949 19.9758Z" fill="#F9F9F9"/>
<path d="M85.6023 25.5999V25.5627C85.9108 25.0536 86.244 24.4639 86.6019 23.7935C86.9597 23.1231 87.2744 22.4837 87.5458 21.8754L83.7329 10.8135V10.7017H86.6944L87.842 14.0538C88.0271 14.5877 88.2122 15.1588 88.3973 15.7671C88.5824 16.3755 88.7675 17.1452 88.9526 18.0763H89.3968C89.5819 17.1452 89.767 16.3755 89.9521 15.7671C90.1372 15.1588 90.3223 14.5877 90.5074 14.0538L91.655 10.7017H94.4684V10.8135L91.0627 20.3483C90.6184 21.6022 90.1865 22.6699 89.767 23.5514C89.3598 24.4453 89.0143 25.1281 88.7305 25.5999H85.6023Z" fill="#F9F9F9"/>
<path d="M96.0602 21.8754V7.34966H101.428L105.907 19.4172H106.352V7.34966H109.165V21.8754H103.76L99.2994 9.80786H98.8737V21.8754H96.0602Z" fill="#F9F9F9"/>
<path d="M116.683 22.1547C114.844 22.1547 113.468 21.6271 112.555 20.5718C111.654 19.5041 111.204 18.0763 111.204 16.2886C111.204 14.5008 111.654 13.0792 112.555 12.024C113.468 10.9563 114.844 10.4224 116.683 10.4224C118.521 10.4224 119.891 10.9563 120.792 12.024C121.705 13.0792 122.162 14.5008 122.162 16.2886C122.162 18.0763 121.705 19.5041 120.792 20.5718C119.891 21.6271 118.521 22.1547 116.683 22.1547ZM116.683 20.1435C117.497 20.1435 118.096 19.8207 118.478 19.1751C118.861 18.5295 119.052 17.5611 119.052 16.2699C119.052 14.9912 118.861 14.0352 118.478 13.402C118.096 12.7564 117.497 12.4337 116.683 12.4337C115.868 12.4337 115.27 12.7564 114.887 13.402C114.505 14.0352 114.314 14.9912 114.314 16.2699C114.314 17.5611 114.505 18.5295 114.887 19.1751C115.27 19.8207 115.868 20.1435 116.683 20.1435Z" fill="#F9F9F9"/>
<path d="M125.785 21.8754C125.501 21.5402 125.273 21.1367 125.1 20.6649C124.94 20.1931 124.86 19.4854 124.86 18.5419V12.8247H123.342V10.7017H124.897V7.90834H127.84V10.7017H129.635V12.8247H127.84V18.2253C127.84 19.2061 127.951 19.9572 128.173 20.4787C128.395 21.0001 128.66 21.4284 128.969 21.7636V21.8754H125.785Z" fill="#F9F9F9"/>
<path d="M131.553 21.8754V10.7017H134.551V21.8754H131.553ZM133.052 9.41678C132.522 9.41678 132.121 9.28021 131.849 9.00708C131.578 8.72153 131.442 8.35528 131.442 7.90834C131.442 7.4614 131.578 7.10136 131.849 6.82822C132.121 6.54268 132.522 6.3999 133.052 6.3999C133.583 6.3999 133.984 6.54268 134.255 6.82822C134.527 7.10136 134.662 7.4614 134.662 7.90834C134.662 8.35528 134.527 8.72153 134.255 9.00708C133.984 9.28021 133.583 9.41678 133.052 9.41678Z" fill="#F9F9F9"/>
<path d="M142.039 22.1547C140.201 22.1547 138.825 21.6271 137.912 20.5718C137.011 19.5041 136.561 18.0763 136.561 16.2886C136.561 14.5008 137.011 13.0792 137.912 12.024C138.825 10.9563 140.201 10.4224 142.039 10.4224C143.878 10.4224 145.248 10.9563 146.149 12.024C147.062 13.0792 147.518 14.5008 147.518 16.2886C147.518 18.0763 147.062 19.5041 146.149 20.5718C145.248 21.6271 143.878 22.1547 142.039 22.1547ZM142.039 20.1435C142.854 20.1435 143.452 19.8207 143.835 19.1751C144.217 18.5295 144.409 17.5611 144.409 16.2699C144.409 14.9912 144.217 14.0352 143.835 13.402C143.452 12.7564 142.854 12.4337 142.039 12.4337C141.225 12.4337 140.627 12.7564 140.244 13.402C139.861 14.0352 139.67 14.9912 139.67 16.2699C139.67 17.5611 139.861 18.5295 140.244 19.1751C140.627 19.8207 141.225 20.1435 142.039 20.1435Z" fill="#F9F9F9"/>
<path d="M149.513 21.8754V10.7017H152.289V12.3778H152.734C152.956 11.8191 153.295 11.3535 153.752 10.9811C154.221 10.6086 154.905 10.4224 155.806 10.4224C157.04 10.4224 157.966 10.8135 158.583 11.5956C159.2 12.3778 159.508 13.4393 159.508 14.7801V21.8754H156.51V15.2829C156.51 14.5132 156.374 13.9235 156.102 13.5138C155.831 13.0917 155.387 12.8806 154.77 12.8806C154.054 12.8806 153.499 13.1661 153.104 13.7372C152.709 14.2959 152.511 14.9974 152.511 15.8416V21.8754H149.513Z" fill="#F9F9F9"/>
</g>
<defs>
<clipPath id="clip0_78996_591">
<rect width="160" height="32" fill="white"/>
</clipPath>
</defs>
</svg>
