<svg width="480" height="320" viewBox="0 0 480 320" fill="none" xmlns="http://www.w3.org/2000/svg">
<g opacity="0.54" clip-path="url(#clip0_11167_18130)">
<rect width="480" height="320" transform="matrix(-1 0 0 1 480 0)" fill="url(#paint0_linear_11167_18130)"/>
<g clip-path="url(#clip1_11167_18130)">
<path fill-rule="evenodd" clip-rule="evenodd" d="M92.0254 17.2033L92.0254 16.9178L92.1677 16.775L97.8763 11.0479L103.585 5.32073L103.869 5.03467L104.154 5.32073L109.863 11.0479L115.571 16.775L115.856 17.0606L116.141 16.775L121.849 11.0479L127.557 5.32073L127.842 5.03467L128.127 5.32073L133.835 11.0479L139.544 16.775L139.829 17.0606L140.114 16.775L145.822 11.0479L151.53 5.32073L151.815 5.03467L152.1 5.32073L157.808 11.0479L163.517 16.775L163.802 17.0606L164.086 16.775L169.795 11.0479L175.503 5.32073L175.788 5.03466L176.072 5.32073L181.781 11.0479L187.49 16.775L187.775 17.0605L188.059 16.775L193.768 11.0479L199.476 5.32073L199.761 5.03466L200.045 5.32073L205.754 11.0479L211.462 16.775L211.747 17.0605L212.032 16.775L217.741 11.0479L223.449 5.32073L223.734 5.03466L224.019 5.32073L229.727 11.0478L235.435 16.775L235.72 17.0605L236.005 16.775L241.713 11.0478L247.422 5.32072L247.707 5.03466L247.991 5.32072L253.7 11.0478L259.408 16.775L259.693 17.0605L259.978 16.775L265.686 11.0478L271.395 5.32072L271.68 5.03466L271.964 5.32072L277.672 11.0478L283.381 16.775L283.666 17.0605L283.951 16.775L285.976 14.7427L285.976 15.885L284.805 17.0605L285.976 18.2356L285.976 19.3779L283.951 17.3461L283.666 17.0605L283.381 17.3461L277.672 23.0732L271.964 28.8004L271.68 29.0859L271.395 28.8004L265.686 23.0732L259.978 17.3461L259.693 17.0605L259.408 17.3461L253.7 23.0732L247.991 28.8004L247.707 29.0859L247.422 28.8004L241.713 23.0732L236.005 17.3461L235.72 17.0605L235.435 17.3461L229.727 23.0732L224.019 28.8004L223.734 29.0859L223.449 28.8004L217.741 23.0732L212.032 17.3461L211.747 17.0605L211.462 17.3461L205.754 23.0732L200.045 28.8004L199.761 29.0859L199.476 28.8004L193.768 23.0732L188.059 17.3461L187.775 17.0605L187.49 17.3461L181.781 23.0732L176.072 28.8004L175.788 29.0859L175.503 28.8004L169.795 23.0733L164.086 17.3461L163.802 17.0606L163.517 17.3461L157.808 23.0733L152.1 28.8004L151.815 29.0859L151.53 28.8004L145.822 23.0733L140.114 17.3461L139.829 17.0606L139.544 17.3461L133.835 23.0733L128.127 28.8004L127.842 29.086L127.557 28.8004L121.849 23.0733L116.141 17.3461L115.856 17.0606L115.571 17.3461L109.863 23.0733L104.154 28.8004L103.869 29.086L103.585 28.8004L97.8763 23.0733L92.1677 17.3461L92.0254 17.2033Z" stroke="#DBDDEA" stroke-miterlimit="10"/>
<path fill-rule="evenodd" clip-rule="evenodd" d="M92.0254 41.2619L92.0254 40.9764L92.1677 40.8336L97.8763 35.1064L103.585 29.3793L103.869 29.0933L104.154 29.3793L109.863 35.1064L115.571 40.8336L115.856 41.1191L116.141 40.8336L121.849 35.1064L127.557 29.3793L127.842 29.0933L128.127 29.3793L133.835 35.1064L139.544 40.8336L139.829 41.1191L140.114 40.8336L145.822 35.1064L151.53 29.3793L151.815 29.0933L152.1 29.3793L157.808 35.1064L163.517 40.8336L163.802 41.1191L164.086 40.8336L169.795 35.1064L175.503 29.3793L175.788 29.0933L176.072 29.3793L181.781 35.1064L187.49 40.8336L187.775 41.1191L188.059 40.8336L193.768 35.1064L199.476 29.3793L199.761 29.0933L200.045 29.3793L205.754 35.1064L211.462 40.8336L211.747 41.1191L212.032 40.8336L217.741 35.1064L223.449 29.3793L223.734 29.0933L224.019 29.3793L229.727 35.1064L235.435 40.8336L235.72 41.1191L236.005 40.8336L241.713 35.1064L247.422 29.3793L247.707 29.0933L247.991 29.3793L253.7 35.1064L259.408 40.8336L259.693 41.1191L259.978 40.8336L265.686 35.1064L271.395 29.3793L271.68 29.0933L271.964 29.3793L277.672 35.1064L283.381 40.8336L283.666 41.1191L283.951 40.8336L285.976 38.8013L285.976 39.9436L284.805 41.1191L285.976 42.2942L285.976 43.4365L283.951 41.4047L283.666 41.1191L283.381 41.4047L277.672 47.1318L271.964 52.859L271.68 53.1445L271.395 52.859L265.686 47.1318L259.978 41.4047L259.693 41.1191L259.408 41.4047L253.7 47.1318L247.991 52.859L247.707 53.1445L247.422 52.859L241.713 47.1318L236.005 41.4047L235.72 41.1191L235.435 41.4047L229.727 47.1318L224.019 52.859L223.734 53.1445L223.449 52.859L217.741 47.1318L212.032 41.4047L211.747 41.1191L211.462 41.4047L205.754 47.1318L200.045 52.859L199.761 53.1445L199.476 52.859L193.768 47.1318L188.059 41.4047L187.775 41.1191L187.49 41.4047L181.781 47.1318L176.072 52.859L175.788 53.1445L175.503 52.859L169.795 47.1318L164.086 41.4047L163.802 41.1191L163.517 41.4047L157.808 47.1318L152.1 52.859L151.815 53.1445L151.53 52.859L145.822 47.1318L140.114 41.4047L139.829 41.1191L139.544 41.4047L133.835 47.1318L128.127 52.859L127.842 53.1445L127.557 52.859L121.849 47.1318L116.141 41.4047L115.856 41.1191L115.571 41.4047L109.863 47.1318L104.154 52.859L103.869 53.1445L103.585 52.859L97.8763 47.1318L92.1677 41.4047L92.0254 41.2619Z" stroke="#DBDDEA" stroke-miterlimit="10"/>
<path fill-rule="evenodd" clip-rule="evenodd" d="M92.0254 65.3205L92.0254 65.035L92.1677 64.8922L97.8763 59.165L103.585 53.4379L103.869 53.1519L104.154 53.4379L109.863 59.165L115.571 64.8922L115.856 65.1777L116.141 64.8922L121.849 59.165L127.557 53.4379L127.842 53.1519L128.127 53.4379L133.835 59.165L139.544 64.8922L139.829 65.1777L140.114 64.8922L145.822 59.165L151.53 53.4379L151.815 53.1519L152.1 53.4379L157.808 59.165L163.517 64.8922L163.802 65.1777L164.086 64.8922L169.795 59.165L175.503 53.4379L175.788 53.1519L176.072 53.4379L181.781 59.165L187.49 64.8922L187.775 65.1777L188.059 64.8922L193.768 59.165L199.476 53.4379L199.761 53.1519L200.045 53.4379L205.754 59.165L211.462 64.8922L211.747 65.1777L212.032 64.8922L217.741 59.165L223.449 53.4379L223.734 53.1518L224.019 53.4379L229.727 59.165L235.435 64.8922L235.72 65.1777L236.005 64.8922L241.713 59.165L247.422 53.4379L247.707 53.1518L247.991 53.4379L253.7 59.165L259.408 64.8922L259.693 65.1777L259.978 64.8922L265.686 59.165L271.395 53.4379L271.68 53.1518L271.964 53.4379L277.672 59.165L283.381 64.8922L283.666 65.1777L283.951 64.8922L285.976 62.8599L285.976 64.0022L284.805 65.1777L285.976 66.3528L285.976 67.4951L283.951 65.4633L283.666 65.1777L283.381 65.4633L277.672 71.1904L271.964 76.9176L271.68 77.2031L271.395 76.9176L265.686 71.1904L259.978 65.4633L259.693 65.1777L259.408 65.4633L253.7 71.1904L247.991 76.9176L247.707 77.2031L247.422 76.9176L241.713 71.1904L236.005 65.4633L235.72 65.1777L235.435 65.4633L229.727 71.1904L224.019 76.9176L223.734 77.2031L223.449 76.9176L217.741 71.1904L212.032 65.4633L211.747 65.1777L211.462 65.4633L205.754 71.1904L200.045 76.9176L199.761 77.2031L199.476 76.9176L193.768 71.1904L188.059 65.4633L187.775 65.1777L187.49 65.4633L181.781 71.1904L176.072 76.9176L175.788 77.2031L175.503 76.9176L169.795 71.1904L164.086 65.4633L163.802 65.1777L163.517 65.4633L157.808 71.1904L152.1 76.9176L151.815 77.2031L151.53 76.9176L145.822 71.1904L140.114 65.4633L139.829 65.1777L139.544 65.4633L133.835 71.1904L128.127 76.9176L127.842 77.2031L127.557 76.9176L121.849 71.1904L116.141 65.4633L115.856 65.1777L115.571 65.4633L109.863 71.1904L104.154 76.9176L103.869 77.2031L103.585 76.9176L97.8763 71.1904L92.1677 65.4633L92.0254 65.3205Z" stroke="#DBDDEA" stroke-miterlimit="10"/>
<path fill-rule="evenodd" clip-rule="evenodd" d="M92.0254 89.3791L92.0254 89.0935L92.1677 88.9508L97.8763 83.2236L103.585 77.4965L103.869 77.2104L104.154 77.4965L109.863 83.2236L115.571 88.9508L115.856 89.2363L116.141 88.9508L121.849 83.2236L127.557 77.4965L127.842 77.2104L128.127 77.4965L133.835 83.2236L139.544 88.9508L139.829 89.2363L140.114 88.9508L145.822 83.2236L151.53 77.4965L151.815 77.2104L152.1 77.4965L157.808 83.2236L163.517 88.9508L163.802 89.2363L164.086 88.9508L169.795 83.2236L175.503 77.4965L175.788 77.2104L176.072 77.4965L181.781 83.2236L187.49 88.9508L187.775 89.2363L188.059 88.9508L193.768 83.2236L199.476 77.4965L199.761 77.2104L200.045 77.4965L205.754 83.2236L211.462 88.9508L211.747 89.2363L212.032 88.9508L217.741 83.2236L223.449 77.4965L223.734 77.2104L224.019 77.4965L229.727 83.2236L235.435 88.9508L235.72 89.2363L236.005 88.9508L241.713 83.2236L247.422 77.4965L247.707 77.2104L247.991 77.4965L253.7 83.2236L259.408 88.9508L259.693 89.2363L259.978 88.9508L265.686 83.2236L271.395 77.4965L271.68 77.2104L271.964 77.4965L277.672 83.2236L283.381 88.9508L283.666 89.2363L283.951 88.9508L285.976 86.9185L285.976 88.0608L284.805 89.2363L285.976 90.4114L285.976 91.5537L283.951 89.5219L283.666 89.2363L283.381 89.5219L277.672 95.249L271.964 100.976L271.68 101.262L271.395 100.976L265.686 95.249L259.978 89.5219L259.693 89.2363L259.408 89.5219L253.7 95.249L247.991 100.976L247.707 101.262L247.422 100.976L241.713 95.249L236.005 89.5219L235.72 89.2363L235.435 89.5219L229.727 95.249L224.019 100.976L223.734 101.262L223.449 100.976L217.741 95.249L212.032 89.5219L211.747 89.2363L211.462 89.5219L205.754 95.249L200.045 100.976L199.761 101.262L199.476 100.976L193.768 95.249L188.059 89.5219L187.775 89.2363L187.49 89.5219L181.781 95.249L176.072 100.976L175.788 101.262L175.503 100.976L169.795 95.249L164.086 89.5219L163.802 89.2363L163.517 89.5219L157.808 95.249L152.1 100.976L151.815 101.262L151.53 100.976L145.822 95.249L140.114 89.5219L139.829 89.2363L139.544 89.5219L133.835 95.249L128.127 100.976L127.842 101.262L127.557 100.976L121.849 95.249L116.141 89.5219L115.856 89.2363L115.571 89.5219L109.863 95.249L104.154 100.976L103.869 101.262L103.585 100.976L97.8763 95.249L92.1677 89.5219L92.0254 89.3791Z" stroke="#DBDDEA" stroke-miterlimit="10"/>
<path fill-rule="evenodd" clip-rule="evenodd" d="M92.0254 113.438L92.0254 113.152L92.1677 113.009L97.8763 107.282L103.585 101.555L103.869 101.269L104.154 101.555L109.863 107.282L115.571 113.009L115.856 113.295L116.141 113.009L121.849 107.282L127.557 101.555L127.842 101.269L128.127 101.555L133.835 107.282L139.544 113.009L139.829 113.295L140.114 113.009L145.822 107.282L151.53 101.555L151.815 101.269L152.1 101.555L157.808 107.282L163.517 113.009L163.802 113.295L164.086 113.009L169.795 107.282L175.503 101.555L175.788 101.269L176.072 101.555L181.781 107.282L187.49 113.009L187.775 113.295L188.059 113.009L193.768 107.282L199.476 101.555L199.761 101.269L200.045 101.555L205.754 107.282L211.462 113.009L211.747 113.295L212.032 113.009L217.741 107.282L223.449 101.555L223.734 101.269L224.019 101.555L229.727 107.282L235.435 113.009L235.72 113.295L236.005 113.009L241.713 107.282L247.422 101.555L247.707 101.269L247.991 101.555L253.7 107.282L259.408 113.009L259.693 113.295L259.978 113.009L265.686 107.282L271.395 101.555L271.68 101.269L271.964 101.555L277.672 107.282L283.381 113.009L283.666 113.295L283.951 113.009L285.976 110.977L285.976 112.119L284.805 113.295L285.976 114.47L285.976 115.612L283.951 113.58L283.666 113.295L283.381 113.58L277.672 119.308L271.964 125.035L271.68 125.32L271.395 125.035L265.686 119.308L259.978 113.58L259.693 113.295L259.408 113.58L253.7 119.308L247.991 125.035L247.707 125.32L247.422 125.035L241.713 119.308L236.005 113.58L235.72 113.295L235.435 113.58L229.727 119.308L224.019 125.035L223.734 125.32L223.449 125.035L217.741 119.308L212.032 113.58L211.747 113.295L211.462 113.58L205.754 119.308L200.045 125.035L199.761 125.32L199.476 125.035L193.768 119.308L188.059 113.581L187.775 113.295L187.49 113.581L181.781 119.308L176.072 125.035L175.788 125.32L175.503 125.035L169.795 119.308L164.086 113.581L163.802 113.295L163.517 113.581L157.808 119.308L152.1 125.035L151.815 125.32L151.53 125.035L145.822 119.308L140.114 113.581L139.829 113.295L139.544 113.581L133.835 119.308L128.127 125.035L127.842 125.32L127.557 125.035L121.849 119.308L116.141 113.581L115.856 113.295L115.571 113.581L109.863 119.308L104.154 125.035L103.869 125.32L103.585 125.035L97.8763 119.308L92.1677 113.581L92.0254 113.438Z" stroke="#DBDDEA" stroke-miterlimit="10"/>
<path fill-rule="evenodd" clip-rule="evenodd" d="M92.0254 137.496L92.0254 137.211L92.1677 137.068L97.8763 131.341L103.585 125.614L103.869 125.328L104.154 125.614L109.863 131.341L115.571 137.068L115.856 137.354L116.141 137.068L121.849 131.341L127.557 125.614L127.842 125.328L128.127 125.614L133.835 131.341L139.544 137.068L139.829 137.354L140.114 137.068L145.822 131.341L151.53 125.614L151.815 125.328L152.1 125.614L157.808 131.341L163.517 137.068L163.802 137.354L164.086 137.068L169.795 131.341L175.503 125.614L175.788 125.328L176.072 125.614L181.781 131.341L187.49 137.068L187.775 137.354L188.059 137.068L193.768 131.341L199.476 125.614L199.761 125.328L200.045 125.614L205.754 131.341L211.462 137.068L211.747 137.354L212.032 137.068L217.741 131.341L223.449 125.614L223.734 125.328L224.019 125.614L229.727 131.341L235.435 137.068L235.72 137.354L236.005 137.068L241.713 131.341L247.422 125.614L247.707 125.328L247.991 125.614L253.7 131.341L259.408 137.068L259.693 137.354L259.978 137.068L265.686 131.341L271.395 125.614L271.68 125.328L271.964 125.614L277.672 131.341L283.381 137.068L283.666 137.354L283.951 137.068L285.976 135.036L285.976 136.178L284.805 137.354L285.976 138.529L285.976 139.671L283.951 137.639L283.666 137.354L283.381 137.639L277.672 143.366L271.964 149.093L271.68 149.379L271.395 149.093L265.686 143.366L259.978 137.639L259.693 137.354L259.408 137.639L253.7 143.366L247.991 149.093L247.707 149.379L247.422 149.093L241.713 143.366L236.005 137.639L235.72 137.354L235.435 137.639L229.727 143.366L224.019 149.093L223.734 149.379L223.449 149.093L217.741 143.366L212.032 137.639L211.747 137.354L211.462 137.639L205.754 143.366L200.045 149.093L199.761 149.379L199.476 149.093L193.768 143.366L188.059 137.639L187.775 137.354L187.49 137.639L181.781 143.366L176.072 149.093L175.788 149.379L175.503 149.093L169.795 143.366L164.086 137.639L163.802 137.354L163.517 137.639L157.808 143.366L152.1 149.093L151.815 149.379L151.53 149.093L145.822 143.366L140.114 137.639L139.829 137.354L139.544 137.639L133.835 143.366L128.127 149.093L127.842 149.379L127.557 149.093L121.849 143.366L116.141 137.639L115.856 137.354L115.571 137.639L109.863 143.366L104.154 149.093L103.869 149.379L103.585 149.093L97.8763 143.366L92.1677 137.639L92.0254 137.496Z" stroke="#DBDDEA" stroke-miterlimit="10"/>
<path fill-rule="evenodd" clip-rule="evenodd" d="M92.0254 161.555L92.0254 161.269L92.1677 161.127L97.8763 155.399L103.585 149.672L103.869 149.386L104.154 149.672L109.863 155.399L115.571 161.127L115.856 161.412L116.141 161.127L121.849 155.399L127.557 149.672L127.842 149.386L128.127 149.672L133.835 155.399L139.544 161.127L139.829 161.412L140.114 161.127L145.822 155.399L151.53 149.672L151.815 149.386L152.1 149.672L157.808 155.399L163.517 161.127L163.802 161.412L164.086 161.127L169.795 155.399L175.503 149.672L175.788 149.386L176.072 149.672L181.781 155.399L187.49 161.127L187.775 161.412L188.059 161.127L193.768 155.399L199.476 149.672L199.761 149.386L200.045 149.672L205.754 155.399L211.462 161.127L211.747 161.412L212.032 161.127L217.741 155.399L223.449 149.672L223.734 149.386L224.019 149.672L229.727 155.399L235.435 161.127L235.72 161.412L236.005 161.127L241.713 155.399L247.422 149.672L247.707 149.386L247.991 149.672L253.7 155.399L259.408 161.127L259.693 161.412L259.978 161.127L265.686 155.399L271.395 149.672L271.68 149.386L271.964 149.672L277.672 155.399L283.381 161.127L283.666 161.412L283.951 161.127L285.976 159.094L285.976 160.237L284.805 161.412L285.976 162.587L285.976 163.729L283.951 161.698L283.666 161.412L283.381 161.698L277.672 167.425L271.964 173.152L271.68 173.438L271.395 173.152L265.686 167.425L259.978 161.698L259.693 161.412L259.408 161.698L253.7 167.425L247.991 173.152L247.707 173.438L247.422 173.152L241.713 167.425L236.005 161.698L235.72 161.412L235.435 161.698L229.727 167.425L224.019 173.152L223.734 173.438L223.449 173.152L217.741 167.425L212.032 161.698L211.747 161.412L211.462 161.698L205.754 167.425L200.045 173.152L199.761 173.438L199.476 173.152L193.768 167.425L188.059 161.698L187.775 161.412L187.49 161.698L181.781 167.425L176.072 173.152L175.788 173.438L175.503 173.152L169.795 167.425L164.086 161.698L163.802 161.412L163.517 161.698L157.808 167.425L152.1 173.152L151.815 173.438L151.53 173.152L145.822 167.425L140.114 161.698L139.829 161.412L139.544 161.698L133.835 167.425L128.127 173.152L127.842 173.438L127.557 173.152L121.849 167.425L116.141 161.698L115.856 161.412L115.571 161.698L109.863 167.425L104.154 173.152L103.869 173.438L103.585 173.152L97.8763 167.425L92.1677 161.698L92.0254 161.555Z" stroke="#DBDDEA" stroke-miterlimit="10"/>
<path fill-rule="evenodd" clip-rule="evenodd" d="M92.0254 185.614L92.0254 185.328L92.1677 185.185L97.8763 179.458L103.585 173.731L103.869 173.445L104.154 173.731L109.863 179.458L115.571 185.185L115.856 185.471L116.141 185.185L121.849 179.458L127.557 173.731L127.842 173.445L128.127 173.731L133.835 179.458L139.544 185.185L139.829 185.471L140.114 185.185L145.822 179.458L151.53 173.731L151.815 173.445L152.1 173.731L157.808 179.458L163.517 185.185L163.802 185.471L164.086 185.185L169.795 179.458L175.503 173.731L175.788 173.445L176.072 173.731L181.781 179.458L187.49 185.185L187.775 185.471L188.059 185.185L193.768 179.458L199.476 173.731L199.761 173.445L200.045 173.731L205.754 179.458L211.462 185.185L211.747 185.471L212.032 185.185L217.741 179.458L223.449 173.731L223.734 173.445L224.019 173.731L229.727 179.458L235.435 185.185L235.72 185.471L236.005 185.185L241.713 179.458L247.422 173.731L247.707 173.445L247.991 173.731L253.7 179.458L259.408 185.185L259.693 185.471L259.978 185.185L265.686 179.458L271.395 173.731L271.68 173.445L271.964 173.731L277.672 179.458L283.381 185.185L283.666 185.471L283.951 185.185L285.976 183.153L285.976 184.295L284.805 185.471L285.976 186.646L285.976 187.788L283.951 185.756L283.666 185.471L283.381 185.756L277.672 191.483L271.964 197.211L271.68 197.496L271.395 197.211L265.686 191.483L259.978 185.756L259.693 185.471L259.408 185.756L253.7 191.483L247.991 197.211L247.707 197.496L247.422 197.211L241.713 191.483L236.005 185.756L235.72 185.471L235.435 185.756L229.727 191.483L224.019 197.211L223.734 197.496L223.449 197.211L217.741 191.483L212.032 185.756L211.747 185.471L211.462 185.756L205.754 191.483L200.045 197.211L199.761 197.496L199.476 197.211L193.768 191.483L188.059 185.756L187.775 185.471L187.49 185.756L181.781 191.483L176.072 197.211L175.788 197.496L175.503 197.211L169.795 191.483L164.086 185.756L163.802 185.471L163.517 185.756L157.808 191.483L152.1 197.211L151.815 197.496L151.53 197.211L145.822 191.483L140.114 185.756L139.829 185.471L139.544 185.756L133.835 191.483L128.127 197.211L127.842 197.496L127.557 197.211L121.849 191.483L116.141 185.756L115.856 185.471L115.571 185.756L109.863 191.483L104.154 197.211L103.869 197.496L103.585 197.211L97.8763 191.483L92.1677 185.756L92.0254 185.614Z" stroke="#DBDDEA" stroke-miterlimit="10"/>
<path fill-rule="evenodd" clip-rule="evenodd" d="M92.0254 209.672L92.0254 209.387L92.1677 209.244L97.8763 203.517L103.585 197.789L103.869 197.503L104.154 197.789L109.863 203.517L115.571 209.244L115.856 209.529L116.141 209.244L121.849 203.517L127.557 197.789L127.842 197.503L128.127 197.789L133.835 203.517L139.544 209.244L139.829 209.529L140.114 209.244L145.822 203.517L151.53 197.789L151.815 197.503L152.1 197.789L157.808 203.517L163.517 209.244L163.802 209.529L164.086 209.244L169.795 203.517L175.503 197.789L175.788 197.503L176.072 197.789L181.781 203.517L187.49 209.244L187.775 209.529L188.059 209.244L193.768 203.517L199.476 197.789L199.761 197.503L200.045 197.789L205.754 203.517L211.462 209.244L211.747 209.529L212.032 209.244L217.741 203.517L223.449 197.789L223.734 197.503L224.019 197.789L229.727 203.517L235.435 209.244L235.72 209.529L236.005 209.244L241.713 203.517L247.422 197.789L247.707 197.503L247.991 197.789L253.7 203.517L259.408 209.244L259.693 209.529L259.978 209.244L265.686 203.517L271.395 197.789L271.68 197.503L271.964 197.789L277.672 203.517L283.381 209.244L283.666 209.529L283.951 209.244L285.976 207.211L285.976 208.354L284.805 209.529L285.976 210.704L285.976 211.847L283.951 209.815L283.666 209.529L283.381 209.815L277.672 215.542L271.964 221.269L271.68 221.555L271.395 221.269L265.686 215.542L259.978 209.815L259.693 209.529L259.408 209.815L253.7 215.542L247.991 221.269L247.707 221.555L247.422 221.269L241.713 215.542L236.005 209.815L235.72 209.529L235.435 209.815L229.727 215.542L224.019 221.269L223.734 221.555L223.449 221.269L217.741 215.542L212.032 209.815L211.747 209.529L211.462 209.815L205.754 215.542L200.045 221.269L199.761 221.555L199.476 221.269L193.768 215.542L188.059 209.815L187.775 209.529L187.49 209.815L181.781 215.542L176.072 221.269L175.788 221.555L175.503 221.269L169.795 215.542L164.086 209.815L163.802 209.529L163.517 209.815L157.808 215.542L152.1 221.269L151.815 221.555L151.53 221.269L145.822 215.542L140.114 209.815L139.829 209.529L139.544 209.815L133.835 215.542L128.127 221.269L127.842 221.555L127.557 221.269L121.849 215.542L116.141 209.815L115.856 209.529L115.571 209.815L109.863 215.542L104.154 221.269L103.869 221.555L103.585 221.269L97.8763 215.542L92.1677 209.815L92.0254 209.672Z" stroke="#DBDDEA" stroke-miterlimit="10"/>
<path fill-rule="evenodd" clip-rule="evenodd" d="M92.0254 233.731L92.0254 233.446L92.1677 233.303L97.8763 227.576L103.585 221.849L103.869 221.562L104.154 221.849L109.863 227.576L115.571 233.303L115.856 233.588L116.141 233.303L121.849 227.576L127.557 221.849L127.842 221.562L128.127 221.849L133.835 227.576L139.544 233.303L139.829 233.588L140.114 233.303L145.822 227.576L151.53 221.849L151.815 221.562L152.1 221.849L157.808 227.576L163.517 233.303L163.802 233.588L164.086 233.303L169.795 227.576L175.503 221.849L175.788 221.562L176.072 221.849L181.781 227.576L187.49 233.303L187.775 233.588L188.059 233.303L193.768 227.576L199.476 221.849L199.761 221.562L200.045 221.849L205.754 227.576L211.462 233.303L211.747 233.588L212.032 233.303L217.741 227.576L223.449 221.849L223.734 221.562L224.019 221.849L229.727 227.576L235.435 233.303L235.72 233.588L236.005 233.303L241.713 227.576L247.422 221.849L247.707 221.562L247.991 221.849L253.7 227.576L259.408 233.303L259.693 233.588L259.978 233.303L265.686 227.576L271.395 221.849L271.68 221.562L271.964 221.849L277.672 227.576L283.381 233.303L283.666 233.588L283.951 233.303L285.976 231.271L285.976 232.413L284.805 233.588L285.976 234.763L285.976 235.906L283.951 233.874L283.666 233.588L283.381 233.874L277.672 239.601L271.964 245.328L271.68 245.614L271.395 245.328L265.686 239.601L259.978 233.874L259.693 233.588L259.408 233.874L253.7 239.601L247.991 245.328L247.707 245.614L247.422 245.328L241.713 239.601L236.005 233.874L235.72 233.588L235.435 233.874L229.727 239.601L224.019 245.328L223.734 245.614L223.449 245.328L217.741 239.601L212.032 233.874L211.747 233.588L211.462 233.874L205.754 239.601L200.045 245.328L199.761 245.614L199.476 245.328L193.768 239.601L188.059 233.874L187.775 233.588L187.49 233.874L181.781 239.601L176.072 245.328L175.788 245.614L175.503 245.328L169.795 239.601L164.086 233.874L163.802 233.588L163.517 233.874L157.808 239.601L152.1 245.328L151.815 245.614L151.53 245.328L145.822 239.601L140.114 233.874L139.829 233.588L139.544 233.874L133.835 239.601L128.127 245.328L127.842 245.614L127.557 245.328L121.849 239.601L116.141 233.874L115.856 233.588L115.571 233.874L109.863 239.601L104.154 245.328L103.869 245.614L103.585 245.328L97.8763 239.601L92.1677 233.874L92.0254 233.731Z" stroke="#DBDDEA" stroke-miterlimit="10"/>
<path fill-rule="evenodd" clip-rule="evenodd" d="M92.0254 257.79L92.0254 257.504L92.1677 257.361L97.8763 251.634L103.585 245.907L103.869 245.621L104.154 245.907L109.863 251.634L115.571 257.361L115.856 257.647L116.141 257.361L121.849 251.634L127.557 245.907L127.842 245.621L128.127 245.907L133.835 251.634L139.544 257.361L139.829 257.647L140.114 257.361L145.822 251.634L151.53 245.907L151.815 245.621L152.1 245.907L157.808 251.634L163.517 257.361L163.802 257.647L164.086 257.361L169.795 251.634L175.503 245.907L175.788 245.621L176.072 245.907L181.781 251.634L187.49 257.361L187.775 257.647L188.059 257.361L193.768 251.634L199.476 245.907L199.761 245.621L200.045 245.907L205.754 251.634L211.462 257.361L211.747 257.647L212.032 257.361L217.741 251.634L223.449 245.907L223.734 245.621L224.019 245.907L229.727 251.634L235.435 257.361L235.72 257.647L236.005 257.361L241.713 251.634L247.422 245.907L247.707 245.621L247.991 245.907L253.7 251.634L259.408 257.361L259.693 257.647L259.978 257.361L265.686 251.634L271.395 245.907L271.68 245.621L271.964 245.907L277.672 251.634L283.381 257.361L283.666 257.647L283.951 257.361L285.976 255.329L285.976 256.471L284.805 257.647L285.976 258.822L285.976 259.964L283.951 257.933L283.666 257.647L283.381 257.933L277.672 263.66L271.964 269.387L271.68 269.672L271.395 269.387L265.686 263.66L259.978 257.933L259.693 257.647L259.408 257.933L253.7 263.66L247.991 269.387L247.707 269.672L247.422 269.387L241.713 263.66L236.005 257.933L235.72 257.647L235.435 257.933L229.727 263.66L224.019 269.387L223.734 269.672L223.449 269.387L217.741 263.66L212.032 257.933L211.747 257.647L211.462 257.933L205.754 263.66L200.045 269.387L199.761 269.672L199.476 269.387L193.768 263.66L188.059 257.933L187.775 257.647L187.49 257.933L181.781 263.66L176.072 269.387L175.788 269.672L175.503 269.387L169.795 263.66L164.086 257.933L163.802 257.647L163.517 257.933L157.808 263.66L152.1 269.387L151.815 269.672L151.53 269.387L145.822 263.66L140.114 257.933L139.829 257.647L139.544 257.933L133.835 263.66L128.127 269.387L127.842 269.672L127.557 269.387L121.849 263.66L116.141 257.933L115.856 257.647L115.571 257.933L109.863 263.66L104.154 269.387L103.869 269.672L103.585 269.387L97.8763 263.66L92.1677 257.933L92.0254 257.79Z" stroke="#DBDDEA" stroke-miterlimit="10"/>
<path fill-rule="evenodd" clip-rule="evenodd" d="M92.0254 281.848L92.0254 281.563L92.1677 281.42L97.8763 275.693L103.585 269.966L103.869 269.68L104.154 269.966L109.863 275.693L115.571 281.42L115.856 281.706L116.141 281.42L121.849 275.693L127.557 269.966L127.842 269.68L128.127 269.966L133.835 275.693L139.544 281.42L139.829 281.706L140.114 281.42L145.822 275.693L151.53 269.966L151.815 269.68L152.1 269.966L157.808 275.693L163.517 281.42L163.802 281.706L164.086 281.42L169.795 275.693L175.503 269.966L175.788 269.68L176.072 269.966L181.781 275.693L187.49 281.42L187.775 281.706L188.059 281.42L193.768 275.693L199.476 269.966L199.761 269.68L200.045 269.966L205.754 275.693L211.462 281.42L211.747 281.706L212.032 281.42L217.741 275.693L223.449 269.966L223.734 269.68L224.019 269.966L229.727 275.693L235.435 281.42L235.72 281.706L236.005 281.42L241.713 275.693L247.422 269.966L247.707 269.68L247.991 269.966L253.7 275.693L259.408 281.42L259.693 281.706L259.978 281.42L265.686 275.693L271.395 269.966L271.68 269.68L271.964 269.966L277.672 275.693L283.381 281.42L283.666 281.706L283.951 281.42L285.976 279.388L285.976 280.53L284.805 281.706L285.976 282.881L285.976 284.023L283.951 281.991L283.666 281.706L283.381 281.991L277.672 287.718L271.964 293.445L271.68 293.731L271.395 293.445L265.686 287.718L259.978 281.991L259.693 281.706L259.408 281.991L253.7 287.718L247.991 293.445L247.707 293.731L247.422 293.445L241.713 287.718L236.005 281.991L235.72 281.706L235.435 281.991L229.727 287.718L224.019 293.445L223.734 293.731L223.449 293.445L217.741 287.718L212.032 281.991L211.747 281.706L211.462 281.991L205.754 287.718L200.045 293.445L199.761 293.731L199.476 293.445L193.768 287.718L188.059 281.991L187.775 281.706L187.49 281.991L181.781 287.718L176.072 293.445L175.788 293.731L175.503 293.445L169.795 287.718L164.086 281.991L163.802 281.706L163.517 281.991L157.808 287.718L152.1 293.445L151.815 293.731L151.53 293.445L145.822 287.718L140.114 281.991L139.829 281.706L139.544 281.991L133.835 287.718L128.127 293.445L127.842 293.731L127.557 293.445L121.849 287.718L116.141 281.991L115.856 281.706L115.571 281.991L109.863 287.718L104.154 293.445L103.869 293.731L103.585 293.445L97.8763 287.718L92.1677 281.991L92.0254 281.848Z" stroke="#DBDDEA" stroke-miterlimit="10"/>
<path fill-rule="evenodd" clip-rule="evenodd" d="M92.0254 305.907L92.0254 305.621L92.1677 305.479L97.8763 299.751L103.585 294.024L103.869 293.738L104.154 294.024L109.863 299.751L115.571 305.479L115.856 305.764L116.141 305.479L121.849 299.751L127.557 294.024L127.842 293.738L128.127 294.024L133.835 299.751L139.544 305.479L139.829 305.764L140.114 305.479L145.822 299.751L151.53 294.024L151.815 293.738L152.1 294.024L157.808 299.751L163.517 305.479L163.802 305.764L164.086 305.479L169.795 299.751L175.503 294.024L175.788 293.738L176.072 294.024L181.781 299.751L187.49 305.479L187.775 305.764L188.059 305.479L193.768 299.751L199.476 294.024L199.761 293.738L200.045 294.024L205.754 299.751L211.462 305.479L211.747 305.764L212.032 305.479L217.741 299.751L223.449 294.024L223.734 293.738L224.019 294.024L229.727 299.751L235.435 305.479L235.72 305.764L236.005 305.479L241.713 299.751L247.422 294.024L247.707 293.738L247.991 294.024L253.7 299.751L259.408 305.479L259.693 305.764L259.978 305.479L265.686 299.751L271.395 294.024L271.68 293.738L271.964 294.024L277.672 299.751L283.381 305.479L283.666 305.764L283.951 305.479L285.976 303.446L285.976 304.589L284.805 305.764L285.976 306.939L285.976 308.082L283.951 306.05L283.666 305.764L283.381 306.05L277.672 311.777L271.964 317.504L271.68 317.79L271.395 317.504L265.686 311.777L259.978 306.05L259.693 305.764L259.408 306.05L253.7 311.777L247.991 317.504L247.707 317.79L247.422 317.504L241.713 311.777L236.005 306.05L235.72 305.764L235.435 306.05L229.727 311.777L224.019 317.504L223.734 317.79L223.449 317.504L217.741 311.777L212.032 306.05L211.747 305.764L211.462 306.05L205.754 311.777L200.045 317.504L199.761 317.79L199.476 317.504L193.768 311.777L188.059 306.05L187.775 305.764L187.49 306.05L181.781 311.777L176.072 317.504L175.788 317.79L175.503 317.504L169.795 311.777L164.086 306.05L163.802 305.764L163.517 306.05L157.808 311.777L152.1 317.504L151.815 317.79L151.53 317.504L145.822 311.777L140.114 306.05L139.829 305.764L139.544 306.05L133.835 311.777L128.127 317.504L127.842 317.79L127.557 317.504L121.849 311.777L116.141 306.05L115.856 305.764L115.571 306.05L109.863 311.777L104.154 317.504L103.869 317.79L103.585 317.504L97.8763 311.777L92.1677 306.05L92.0254 305.907Z" stroke="#DBDDEA" stroke-miterlimit="10"/>
<path fill-rule="evenodd" clip-rule="evenodd" d="M92.0254 329.966L92.0254 329.68L92.1677 329.537L97.8763 323.81L103.585 318.083L103.869 317.797L104.154 318.083L109.863 323.81L115.571 329.537L115.856 329.823L116.141 329.537L121.849 323.81L127.557 318.083L127.842 317.797L128.127 318.083L133.835 323.81L139.544 329.537L139.829 329.823L140.114 329.537L145.822 323.81L151.53 318.083L151.815 317.797L152.1 318.083L157.808 323.81L163.517 329.537L163.802 329.823L164.086 329.537L169.795 323.81L175.503 318.083L175.788 317.797L176.072 318.083L181.781 323.81L187.49 329.537L187.775 329.823L188.059 329.537L193.768 323.81L199.476 318.083L199.761 317.797L200.045 318.083L205.754 323.81L211.462 329.537L211.747 329.823L212.032 329.537L217.741 323.81L223.449 318.083L223.734 317.797L224.019 318.083L229.727 323.81L235.435 329.537L235.72 329.823L236.005 329.537L241.713 323.81L247.422 318.083L247.707 317.797L247.991 318.083L253.7 323.81L259.408 329.537L259.693 329.823L259.978 329.537L265.686 323.81L271.395 318.083L271.68 317.797L271.964 318.083L277.672 323.81L283.381 329.537L283.666 329.823L283.951 329.537L285.976 327.505L285.976 328.647L284.805 329.823L285.976 330.998L285.976 332.14L283.951 330.108L283.666 329.823L283.381 330.108L277.672 335.835L271.964 341.563L271.68 341.848L271.395 341.563L265.686 335.835L259.978 330.108L259.693 329.823L259.408 330.108L253.7 335.835L247.991 341.563L247.707 341.848L247.422 341.563L241.713 335.835L236.005 330.108L235.72 329.823L235.435 330.108L229.727 335.835L224.019 341.563L223.734 341.848L223.449 341.563L217.741 335.835L212.032 330.108L211.747 329.823L211.462 330.108L205.754 335.835L200.045 341.563L199.761 341.848L199.476 341.563L193.768 335.835L188.059 330.108L187.775 329.823L187.49 330.108L181.781 335.835L176.072 341.563L175.788 341.848L175.503 341.563L169.795 335.835L164.086 330.108L163.802 329.823L163.517 330.108L157.808 335.835L152.1 341.563L151.815 341.848L151.53 341.563L145.822 335.835L140.114 330.108L139.829 329.823L139.544 330.108L133.835 335.835L128.127 341.563L127.842 341.848L127.557 341.563L121.849 335.835L116.141 330.108L115.856 329.823L115.571 330.108L109.863 335.835L104.154 341.563L103.869 341.848L103.585 341.563L97.8763 335.835L92.1677 330.108L92.0254 329.966Z" stroke="#DBDDEA" stroke-miterlimit="10"/>
</g>
<g clip-path="url(#clip2_11167_18130)">
<path fill-rule="evenodd" clip-rule="evenodd" d="M-101.975 17.2033L-101.975 16.9178L-101.832 16.775L-96.1237 11.0479L-90.4151 5.32073L-90.1306 5.03467L-89.8461 5.32073L-84.1375 11.0479L-78.4289 16.775L-78.1439 17.0606L-77.8593 16.775L-72.1507 11.0479L-66.4426 5.32073L-66.1576 5.03467L-65.8731 5.32073L-60.165 11.0479L-54.4563 16.775L-54.1713 17.0606L-53.8863 16.775L-48.1782 11.0479L-42.4696 5.32073L-42.1851 5.03467L-41.9001 5.32073L-36.1919 11.0479L-30.4833 16.775L-30.1983 17.0606L-29.9138 16.775L-24.2052 11.0479L-18.4966 5.32073L-18.212 5.03466L-17.9275 5.32073L-12.2189 11.0479L-6.5103 16.775L-6.22529 17.0605L-5.94077 16.775L-0.232161 11.0479L5.47595 5.32073L5.76097 5.03466L6.04549 5.32073L11.7536 11.0479L17.4622 16.775L17.7472 17.0605L18.0323 16.775L23.7409 11.0479L29.449 5.32073L29.7335 5.03466L30.0185 5.32073L35.7266 11.0478L41.4352 16.775L41.7202 17.0605L42.0048 16.775L47.7134 11.0478L53.422 5.32072L53.7065 5.03466L53.991 5.32072L59.6996 11.0478L65.4083 16.775L65.6933 17.0605L65.9778 16.775L71.6864 11.0478L77.395 5.32072L77.6795 5.03466L77.9641 5.32072L83.6722 11.0478L89.3813 16.775L89.6658 17.0605L89.9508 16.775L91.9763 14.7427L91.9763 15.885L90.8049 17.0605L91.9763 18.2356L91.9763 19.3779L89.9508 17.3461L89.6658 17.0605L89.3813 17.3461L83.6722 23.0732L77.9641 28.8004L77.6795 29.0859L77.395 28.8004L71.6864 23.0732L65.9778 17.3461L65.6933 17.0605L65.4083 17.3461L59.6996 23.0732L53.991 28.8004L53.7065 29.0859L53.422 28.8004L47.7134 23.0732L42.0048 17.3461L41.7202 17.0605L41.4352 17.3461L35.7266 23.0732L30.0185 28.8004L29.7335 29.0859L29.449 28.8004L23.7409 23.0732L18.0323 17.3461L17.7472 17.0605L17.4622 17.3461L11.7536 23.0732L6.04549 28.8004L5.76097 29.0859L5.47595 28.8004L-0.23216 23.0732L-5.94077 17.3461L-6.22529 17.0605L-6.5103 17.3461L-12.2189 23.0732L-17.9275 28.8004L-18.212 29.0859L-18.4966 28.8004L-24.2052 23.0733L-29.9138 17.3461L-30.1983 17.0606L-30.4833 17.3461L-36.1919 23.0733L-41.9001 28.8004L-42.1851 29.0859L-42.4696 28.8004L-48.1782 23.0733L-53.8863 17.3461L-54.1713 17.0606L-54.4563 17.3461L-60.1649 23.0733L-65.8731 28.8004L-66.1576 29.086L-66.4426 28.8004L-72.1507 23.0733L-77.8593 17.3461L-78.1439 17.0606L-78.4289 17.3461L-84.1375 23.0733L-89.8461 28.8004L-90.1306 29.086L-90.4151 28.8004L-96.1237 23.0733L-101.832 17.3461L-101.975 17.2033Z" stroke="#DBDDEA" stroke-miterlimit="10"/>
<path fill-rule="evenodd" clip-rule="evenodd" d="M-101.975 41.2619L-101.975 40.9764L-101.832 40.8336L-96.1237 35.1064L-90.4151 29.3793L-90.1306 29.0933L-89.8461 29.3793L-84.1375 35.1064L-78.4289 40.8336L-78.1439 41.1191L-77.8593 40.8336L-72.1507 35.1064L-66.4426 29.3793L-66.1576 29.0933L-65.8731 29.3793L-60.165 35.1064L-54.4563 40.8336L-54.1713 41.1191L-53.8863 40.8336L-48.1782 35.1064L-42.4696 29.3793L-42.1851 29.0933L-41.9001 29.3793L-36.1919 35.1064L-30.4833 40.8336L-30.1983 41.1191L-29.9138 40.8336L-24.2052 35.1064L-18.4966 29.3793L-18.212 29.0933L-17.9275 29.3793L-12.2189 35.1064L-6.5103 40.8336L-6.22529 41.1191L-5.94077 40.8336L-0.232161 35.1064L5.47595 29.3793L5.76097 29.0933L6.04549 29.3793L11.7536 35.1064L17.4622 40.8336L17.7472 41.1191L18.0323 40.8336L23.7409 35.1064L29.449 29.3793L29.7335 29.0933L30.0185 29.3793L35.7266 35.1064L41.4352 40.8336L41.7202 41.1191L42.0048 40.8336L47.7134 35.1064L53.422 29.3793L53.7065 29.0933L53.991 29.3793L59.6996 35.1064L65.4083 40.8336L65.6933 41.1191L65.9778 40.8336L71.6864 35.1064L77.395 29.3793L77.6795 29.0933L77.9641 29.3793L83.6722 35.1064L89.3813 40.8336L89.6658 41.1191L89.9508 40.8336L91.9763 38.8013L91.9763 39.9436L90.8049 41.1191L91.9763 42.2942L91.9763 43.4365L89.9508 41.4047L89.6658 41.1191L89.3813 41.4047L83.6722 47.1318L77.9641 52.859L77.6795 53.1445L77.395 52.859L71.6864 47.1318L65.9778 41.4047L65.6933 41.1191L65.4083 41.4047L59.6996 47.1318L53.991 52.859L53.7065 53.1445L53.422 52.859L47.7134 47.1318L42.0048 41.4047L41.7202 41.1191L41.4352 41.4047L35.7266 47.1318L30.0185 52.859L29.7335 53.1445L29.449 52.859L23.7409 47.1318L18.0323 41.4047L17.7472 41.1191L17.4622 41.4047L11.7536 47.1318L6.04549 52.859L5.76097 53.1445L5.47595 52.859L-0.23216 47.1318L-5.94077 41.4047L-6.22529 41.1191L-6.5103 41.4047L-12.2189 47.1318L-17.9275 52.859L-18.212 53.1445L-18.4966 52.859L-24.2052 47.1318L-29.9138 41.4047L-30.1983 41.1191L-30.4833 41.4047L-36.1919 47.1318L-41.9001 52.859L-42.1851 53.1445L-42.4696 52.859L-48.1782 47.1318L-53.8863 41.4047L-54.1713 41.1191L-54.4563 41.4047L-60.1649 47.1318L-65.8731 52.859L-66.1576 53.1445L-66.4426 52.859L-72.1507 47.1318L-77.8593 41.4047L-78.1439 41.1191L-78.4289 41.4047L-84.1375 47.1318L-89.8461 52.859L-90.1306 53.1445L-90.4151 52.859L-96.1237 47.1318L-101.832 41.4047L-101.975 41.2619Z" stroke="#DBDDEA" stroke-miterlimit="10"/>
<path fill-rule="evenodd" clip-rule="evenodd" d="M-101.975 65.3205L-101.975 65.035L-101.832 64.8922L-96.1237 59.165L-90.4151 53.4379L-90.1306 53.1519L-89.8461 53.4379L-84.1375 59.165L-78.4289 64.8922L-78.1439 65.1777L-77.8593 64.8922L-72.1507 59.165L-66.4426 53.4379L-66.1576 53.1519L-65.8731 53.4379L-60.165 59.165L-54.4563 64.8922L-54.1713 65.1777L-53.8863 64.8922L-48.1782 59.165L-42.4696 53.4379L-42.1851 53.1519L-41.9001 53.4379L-36.1919 59.165L-30.4833 64.8922L-30.1983 65.1777L-29.9138 64.8922L-24.2052 59.165L-18.4966 53.4379L-18.212 53.1519L-17.9275 53.4379L-12.2189 59.165L-6.5103 64.8922L-6.22529 65.1777L-5.94077 64.8922L-0.232161 59.165L5.47595 53.4379L5.76097 53.1519L6.04549 53.4379L11.7536 59.165L17.4622 64.8922L17.7472 65.1777L18.0323 64.8922L23.7409 59.165L29.449 53.4379L29.7335 53.1518L30.0185 53.4379L35.7266 59.165L41.4352 64.8922L41.7202 65.1777L42.0048 64.8922L47.7134 59.165L53.422 53.4379L53.7065 53.1518L53.991 53.4379L59.6996 59.165L65.4083 64.8922L65.6933 65.1777L65.9778 64.8922L71.6864 59.165L77.395 53.4379L77.6795 53.1518L77.9641 53.4379L83.6722 59.165L89.3813 64.8922L89.6658 65.1777L89.9508 64.8922L91.9763 62.8599L91.9763 64.0022L90.8049 65.1777L91.9763 66.3528L91.9763 67.4951L89.9508 65.4633L89.6658 65.1777L89.3813 65.4633L83.6722 71.1904L77.9641 76.9176L77.6795 77.2031L77.395 76.9176L71.6864 71.1904L65.9778 65.4633L65.6933 65.1777L65.4083 65.4633L59.6996 71.1904L53.991 76.9176L53.7065 77.2031L53.422 76.9176L47.7134 71.1904L42.0048 65.4633L41.7202 65.1777L41.4352 65.4633L35.7266 71.1904L30.0185 76.9176L29.7335 77.2031L29.449 76.9176L23.7409 71.1904L18.0323 65.4633L17.7472 65.1777L17.4622 65.4633L11.7536 71.1904L6.04549 76.9176L5.76097 77.2031L5.47595 76.9176L-0.23216 71.1904L-5.94077 65.4633L-6.22529 65.1777L-6.5103 65.4633L-12.2189 71.1904L-17.9275 76.9176L-18.212 77.2031L-18.4966 76.9176L-24.2052 71.1904L-29.9138 65.4633L-30.1983 65.1777L-30.4833 65.4633L-36.1919 71.1904L-41.9001 76.9176L-42.1851 77.2031L-42.4696 76.9176L-48.1782 71.1904L-53.8863 65.4633L-54.1713 65.1777L-54.4563 65.4633L-60.1649 71.1904L-65.8731 76.9176L-66.1576 77.2031L-66.4426 76.9176L-72.1507 71.1904L-77.8593 65.4633L-78.1439 65.1777L-78.4289 65.4633L-84.1375 71.1904L-89.8461 76.9176L-90.1306 77.2031L-90.4151 76.9176L-96.1237 71.1904L-101.832 65.4633L-101.975 65.3205Z" stroke="#DBDDEA" stroke-miterlimit="10"/>
<path fill-rule="evenodd" clip-rule="evenodd" d="M-101.975 89.3791L-101.975 89.0935L-101.832 88.9508L-96.1237 83.2236L-90.4151 77.4965L-90.1306 77.2104L-89.8461 77.4965L-84.1375 83.2236L-78.4289 88.9508L-78.1439 89.2363L-77.8593 88.9508L-72.1507 83.2236L-66.4426 77.4965L-66.1576 77.2104L-65.8731 77.4965L-60.165 83.2236L-54.4563 88.9508L-54.1713 89.2363L-53.8863 88.9508L-48.1782 83.2236L-42.4696 77.4965L-42.1851 77.2104L-41.9001 77.4965L-36.1919 83.2236L-30.4833 88.9508L-30.1983 89.2363L-29.9138 88.9508L-24.2052 83.2236L-18.4966 77.4965L-18.212 77.2104L-17.9275 77.4965L-12.2189 83.2236L-6.5103 88.9508L-6.22529 89.2363L-5.94077 88.9508L-0.232161 83.2236L5.47595 77.4965L5.76097 77.2104L6.04549 77.4965L11.7536 83.2236L17.4622 88.9508L17.7472 89.2363L18.0323 88.9508L23.7409 83.2236L29.449 77.4965L29.7335 77.2104L30.0185 77.4965L35.7266 83.2236L41.4352 88.9508L41.7202 89.2363L42.0048 88.9508L47.7134 83.2236L53.422 77.4965L53.7065 77.2104L53.991 77.4965L59.6996 83.2236L65.4083 88.9508L65.6933 89.2363L65.9778 88.9508L71.6864 83.2236L77.395 77.4965L77.6795 77.2104L77.9641 77.4965L83.6722 83.2236L89.3813 88.9508L89.6658 89.2363L89.9508 88.9508L91.9763 86.9185L91.9763 88.0608L90.8049 89.2363L91.9763 90.4114L91.9763 91.5537L89.9508 89.5219L89.6658 89.2363L89.3813 89.5219L83.6722 95.249L77.9641 100.976L77.6795 101.262L77.395 100.976L71.6864 95.249L65.9778 89.5219L65.6933 89.2363L65.4083 89.5219L59.6996 95.249L53.991 100.976L53.7065 101.262L53.422 100.976L47.7134 95.249L42.0048 89.5219L41.7202 89.2363L41.4352 89.5219L35.7266 95.249L30.0185 100.976L29.7335 101.262L29.449 100.976L23.7409 95.249L18.0323 89.5219L17.7472 89.2363L17.4622 89.5219L11.7536 95.249L6.04549 100.976L5.76097 101.262L5.47595 100.976L-0.23216 95.249L-5.94077 89.5219L-6.22529 89.2363L-6.5103 89.5219L-12.2189 95.249L-17.9275 100.976L-18.212 101.262L-18.4966 100.976L-24.2052 95.249L-29.9138 89.5219L-30.1983 89.2363L-30.4833 89.5219L-36.1919 95.249L-41.9001 100.976L-42.1851 101.262L-42.4696 100.976L-48.1782 95.249L-53.8863 89.5219L-54.1713 89.2363L-54.4563 89.5219L-60.1649 95.249L-65.8731 100.976L-66.1576 101.262L-66.4426 100.976L-72.1507 95.249L-77.8593 89.5219L-78.1439 89.2363L-78.4289 89.5219L-84.1375 95.249L-89.8461 100.976L-90.1306 101.262L-90.4151 100.976L-96.1237 95.249L-101.832 89.5219L-101.975 89.3791Z" stroke="#DBDDEA" stroke-miterlimit="10"/>
<path fill-rule="evenodd" clip-rule="evenodd" d="M-101.975 113.438L-101.975 113.152L-101.832 113.009L-96.1237 107.282L-90.4151 101.555L-90.1306 101.269L-89.8461 101.555L-84.1375 107.282L-78.4289 113.009L-78.1439 113.295L-77.8593 113.009L-72.1507 107.282L-66.4426 101.555L-66.1576 101.269L-65.8731 101.555L-60.165 107.282L-54.4563 113.009L-54.1713 113.295L-53.8863 113.009L-48.1782 107.282L-42.4696 101.555L-42.1851 101.269L-41.9001 101.555L-36.1919 107.282L-30.4833 113.009L-30.1983 113.295L-29.9138 113.009L-24.2052 107.282L-18.4966 101.555L-18.212 101.269L-17.9275 101.555L-12.2189 107.282L-6.5103 113.009L-6.22529 113.295L-5.94077 113.009L-0.232161 107.282L5.47595 101.555L5.76097 101.269L6.04549 101.555L11.7536 107.282L17.4622 113.009L17.7472 113.295L18.0323 113.009L23.7409 107.282L29.449 101.555L29.7335 101.269L30.0185 101.555L35.7266 107.282L41.4352 113.009L41.7202 113.295L42.0048 113.009L47.7134 107.282L53.422 101.555L53.7065 101.269L53.991 101.555L59.6996 107.282L65.4083 113.009L65.6933 113.295L65.9778 113.009L71.6864 107.282L77.395 101.555L77.6795 101.269L77.9641 101.555L83.6722 107.282L89.3813 113.009L89.6658 113.295L89.9508 113.009L91.9763 110.977L91.9763 112.119L90.8049 113.295L91.9763 114.47L91.9763 115.612L89.9508 113.58L89.6658 113.295L89.3813 113.58L83.6722 119.308L77.9641 125.035L77.6795 125.32L77.395 125.035L71.6864 119.308L65.9778 113.58L65.6933 113.295L65.4083 113.58L59.6996 119.308L53.991 125.035L53.7065 125.32L53.422 125.035L47.7134 119.308L42.0048 113.58L41.7202 113.295L41.4352 113.58L35.7266 119.308L30.0185 125.035L29.7335 125.32L29.449 125.035L23.7409 119.308L18.0323 113.58L17.7472 113.295L17.4622 113.58L11.7536 119.308L6.04549 125.035L5.76097 125.32L5.47595 125.035L-0.23216 119.308L-5.94077 113.581L-6.22529 113.295L-6.5103 113.581L-12.2189 119.308L-17.9275 125.035L-18.212 125.32L-18.4966 125.035L-24.2052 119.308L-29.9138 113.581L-30.1983 113.295L-30.4833 113.581L-36.1919 119.308L-41.9001 125.035L-42.1851 125.32L-42.4696 125.035L-48.1782 119.308L-53.8863 113.581L-54.1713 113.295L-54.4563 113.581L-60.1649 119.308L-65.8731 125.035L-66.1576 125.32L-66.4426 125.035L-72.1507 119.308L-77.8593 113.581L-78.1439 113.295L-78.4289 113.581L-84.1375 119.308L-89.8461 125.035L-90.1306 125.32L-90.4151 125.035L-96.1237 119.308L-101.832 113.581L-101.975 113.438Z" stroke="#DBDDEA" stroke-miterlimit="10"/>
<path fill-rule="evenodd" clip-rule="evenodd" d="M-101.975 137.496L-101.975 137.211L-101.832 137.068L-96.1237 131.341L-90.4151 125.614L-90.1306 125.328L-89.8461 125.614L-84.1375 131.341L-78.4289 137.068L-78.1439 137.354L-77.8593 137.068L-72.1507 131.341L-66.4426 125.614L-66.1576 125.328L-65.8731 125.614L-60.165 131.341L-54.4563 137.068L-54.1713 137.354L-53.8863 137.068L-48.1782 131.341L-42.4696 125.614L-42.1851 125.328L-41.9001 125.614L-36.1919 131.341L-30.4833 137.068L-30.1983 137.354L-29.9138 137.068L-24.2052 131.341L-18.4966 125.614L-18.212 125.328L-17.9275 125.614L-12.2189 131.341L-6.5103 137.068L-6.22529 137.354L-5.94077 137.068L-0.232161 131.341L5.47595 125.614L5.76097 125.328L6.04549 125.614L11.7536 131.341L17.4622 137.068L17.7472 137.354L18.0323 137.068L23.7409 131.341L29.449 125.614L29.7335 125.328L30.0185 125.614L35.7266 131.341L41.4352 137.068L41.7202 137.354L42.0048 137.068L47.7134 131.341L53.422 125.614L53.7065 125.328L53.991 125.614L59.6996 131.341L65.4083 137.068L65.6933 137.354L65.9778 137.068L71.6864 131.341L77.395 125.614L77.6795 125.328L77.9641 125.614L83.6722 131.341L89.3813 137.068L89.6658 137.354L89.9508 137.068L91.9763 135.036L91.9763 136.178L90.8049 137.354L91.9763 138.529L91.9763 139.671L89.9508 137.639L89.6658 137.354L89.3813 137.639L83.6722 143.366L77.9641 149.093L77.6795 149.379L77.395 149.093L71.6864 143.366L65.9778 137.639L65.6933 137.354L65.4083 137.639L59.6996 143.366L53.991 149.093L53.7065 149.379L53.422 149.093L47.7134 143.366L42.0048 137.639L41.7202 137.354L41.4352 137.639L35.7266 143.366L30.0185 149.093L29.7335 149.379L29.449 149.093L23.7409 143.366L18.0323 137.639L17.7472 137.354L17.4622 137.639L11.7536 143.366L6.04549 149.093L5.76097 149.379L5.47595 149.093L-0.23216 143.366L-5.94077 137.639L-6.22529 137.354L-6.5103 137.639L-12.2189 143.366L-17.9275 149.093L-18.212 149.379L-18.4966 149.093L-24.2052 143.366L-29.9138 137.639L-30.1983 137.354L-30.4833 137.639L-36.1919 143.366L-41.9001 149.093L-42.1851 149.379L-42.4696 149.093L-48.1782 143.366L-53.8863 137.639L-54.1713 137.354L-54.4563 137.639L-60.1649 143.366L-65.8731 149.093L-66.1576 149.379L-66.4426 149.093L-72.1507 143.366L-77.8593 137.639L-78.1439 137.354L-78.4289 137.639L-84.1375 143.366L-89.8461 149.093L-90.1306 149.379L-90.4151 149.093L-96.1237 143.366L-101.832 137.639L-101.975 137.496Z" stroke="#DBDDEA" stroke-miterlimit="10"/>
<path fill-rule="evenodd" clip-rule="evenodd" d="M-101.975 161.555L-101.975 161.269L-101.832 161.127L-96.1237 155.399L-90.4151 149.672L-90.1306 149.386L-89.8461 149.672L-84.1375 155.399L-78.4289 161.127L-78.1439 161.412L-77.8593 161.127L-72.1507 155.399L-66.4426 149.672L-66.1576 149.386L-65.8731 149.672L-60.165 155.399L-54.4563 161.127L-54.1713 161.412L-53.8863 161.127L-48.1782 155.399L-42.4696 149.672L-42.1851 149.386L-41.9001 149.672L-36.1919 155.399L-30.4833 161.127L-30.1983 161.412L-29.9138 161.127L-24.2052 155.399L-18.4966 149.672L-18.212 149.386L-17.9275 149.672L-12.2189 155.399L-6.5103 161.127L-6.22529 161.412L-5.94077 161.127L-0.232161 155.399L5.47595 149.672L5.76097 149.386L6.04549 149.672L11.7536 155.399L17.4622 161.127L17.7472 161.412L18.0323 161.127L23.7409 155.399L29.449 149.672L29.7335 149.386L30.0185 149.672L35.7266 155.399L41.4352 161.127L41.7202 161.412L42.0048 161.127L47.7134 155.399L53.422 149.672L53.7065 149.386L53.991 149.672L59.6996 155.399L65.4083 161.127L65.6933 161.412L65.9778 161.127L71.6864 155.399L77.395 149.672L77.6795 149.386L77.9641 149.672L83.6722 155.399L89.3813 161.127L89.6658 161.412L89.9508 161.127L91.9763 159.094L91.9763 160.237L90.8049 161.412L91.9763 162.587L91.9763 163.729L89.9508 161.698L89.6658 161.412L89.3813 161.698L83.6722 167.425L77.9641 173.152L77.6795 173.438L77.395 173.152L71.6864 167.425L65.9778 161.698L65.6933 161.412L65.4083 161.698L59.6996 167.425L53.991 173.152L53.7065 173.438L53.422 173.152L47.7134 167.425L42.0048 161.698L41.7202 161.412L41.4352 161.698L35.7266 167.425L30.0185 173.152L29.7335 173.438L29.449 173.152L23.7409 167.425L18.0323 161.698L17.7472 161.412L17.4622 161.698L11.7536 167.425L6.04549 173.152L5.76097 173.438L5.47595 173.152L-0.23216 167.425L-5.94077 161.698L-6.22529 161.412L-6.5103 161.698L-12.2189 167.425L-17.9275 173.152L-18.212 173.438L-18.4966 173.152L-24.2052 167.425L-29.9138 161.698L-30.1983 161.412L-30.4833 161.698L-36.1919 167.425L-41.9001 173.152L-42.1851 173.438L-42.4696 173.152L-48.1782 167.425L-53.8863 161.698L-54.1713 161.412L-54.4563 161.698L-60.1649 167.425L-65.8731 173.152L-66.1576 173.438L-66.4426 173.152L-72.1507 167.425L-77.8593 161.698L-78.1439 161.412L-78.4289 161.698L-84.1375 167.425L-89.8461 173.152L-90.1306 173.438L-90.4151 173.152L-96.1237 167.425L-101.832 161.698L-101.975 161.555Z" stroke="#DBDDEA" stroke-miterlimit="10"/>
<path fill-rule="evenodd" clip-rule="evenodd" d="M-101.975 185.614L-101.975 185.328L-101.832 185.185L-96.1237 179.458L-90.4151 173.731L-90.1306 173.445L-89.8461 173.731L-84.1375 179.458L-78.4289 185.185L-78.1439 185.471L-77.8593 185.185L-72.1507 179.458L-66.4426 173.731L-66.1576 173.445L-65.8731 173.731L-60.165 179.458L-54.4563 185.185L-54.1713 185.471L-53.8863 185.185L-48.1782 179.458L-42.4696 173.731L-42.1851 173.445L-41.9001 173.731L-36.1919 179.458L-30.4833 185.185L-30.1983 185.471L-29.9138 185.185L-24.2052 179.458L-18.4966 173.731L-18.212 173.445L-17.9275 173.731L-12.2189 179.458L-6.5103 185.185L-6.22529 185.471L-5.94077 185.185L-0.232161 179.458L5.47595 173.731L5.76097 173.445L6.04549 173.731L11.7536 179.458L17.4622 185.185L17.7472 185.471L18.0323 185.185L23.7409 179.458L29.449 173.731L29.7335 173.445L30.0185 173.731L35.7266 179.458L41.4352 185.185L41.7202 185.471L42.0048 185.185L47.7134 179.458L53.422 173.731L53.7065 173.445L53.991 173.731L59.6996 179.458L65.4083 185.185L65.6933 185.471L65.9778 185.185L71.6864 179.458L77.395 173.731L77.6795 173.445L77.9641 173.731L83.6722 179.458L89.3813 185.185L89.6658 185.471L89.9508 185.185L91.9763 183.153L91.9763 184.295L90.8049 185.471L91.9763 186.646L91.9763 187.788L89.9508 185.756L89.6658 185.471L89.3813 185.756L83.6722 191.483L77.9641 197.211L77.6795 197.496L77.395 197.211L71.6864 191.483L65.9778 185.756L65.6933 185.471L65.4083 185.756L59.6996 191.483L53.991 197.211L53.7065 197.496L53.422 197.211L47.7134 191.483L42.0048 185.756L41.7202 185.471L41.4352 185.756L35.7266 191.483L30.0185 197.211L29.7335 197.496L29.449 197.211L23.7409 191.483L18.0323 185.756L17.7472 185.471L17.4622 185.756L11.7536 191.483L6.04549 197.211L5.76097 197.496L5.47595 197.211L-0.23216 191.483L-5.94077 185.756L-6.22529 185.471L-6.5103 185.756L-12.2189 191.483L-17.9275 197.211L-18.212 197.496L-18.4966 197.211L-24.2052 191.483L-29.9138 185.756L-30.1983 185.471L-30.4833 185.756L-36.1919 191.483L-41.9001 197.211L-42.1851 197.496L-42.4696 197.211L-48.1782 191.483L-53.8863 185.756L-54.1713 185.471L-54.4563 185.756L-60.1649 191.483L-65.8731 197.211L-66.1576 197.496L-66.4426 197.211L-72.1507 191.483L-77.8593 185.756L-78.1439 185.471L-78.4289 185.756L-84.1375 191.483L-89.8461 197.211L-90.1306 197.496L-90.4151 197.211L-96.1237 191.483L-101.832 185.756L-101.975 185.614Z" stroke="#DBDDEA" stroke-miterlimit="10"/>
<path fill-rule="evenodd" clip-rule="evenodd" d="M-101.975 209.672L-101.975 209.387L-101.832 209.244L-96.1237 203.517L-90.4151 197.789L-90.1306 197.503L-89.8461 197.789L-84.1375 203.517L-78.4289 209.244L-78.1439 209.529L-77.8593 209.244L-72.1507 203.517L-66.4426 197.789L-66.1576 197.503L-65.8731 197.789L-60.165 203.517L-54.4563 209.244L-54.1713 209.529L-53.8863 209.244L-48.1782 203.517L-42.4696 197.789L-42.1851 197.503L-41.9001 197.789L-36.1919 203.517L-30.4833 209.244L-30.1983 209.529L-29.9138 209.244L-24.2052 203.517L-18.4966 197.789L-18.212 197.503L-17.9275 197.789L-12.2189 203.517L-6.5103 209.244L-6.22529 209.529L-5.94077 209.244L-0.232161 203.517L5.47595 197.789L5.76097 197.503L6.04549 197.789L11.7536 203.517L17.4622 209.244L17.7472 209.529L18.0323 209.244L23.7409 203.517L29.449 197.789L29.7335 197.503L30.0185 197.789L35.7266 203.517L41.4352 209.244L41.7202 209.529L42.0048 209.244L47.7134 203.517L53.422 197.789L53.7065 197.503L53.991 197.789L59.6996 203.517L65.4083 209.244L65.6933 209.529L65.9778 209.244L71.6864 203.517L77.395 197.789L77.6795 197.503L77.9641 197.789L83.6722 203.517L89.3813 209.244L89.6658 209.529L89.9508 209.244L91.9763 207.211L91.9763 208.354L90.8049 209.529L91.9763 210.704L91.9763 211.847L89.9508 209.815L89.6658 209.529L89.3813 209.815L83.6722 215.542L77.9641 221.269L77.6795 221.555L77.395 221.269L71.6864 215.542L65.9778 209.815L65.6933 209.529L65.4083 209.815L59.6996 215.542L53.991 221.269L53.7065 221.555L53.422 221.269L47.7134 215.542L42.0048 209.815L41.7202 209.529L41.4352 209.815L35.7266 215.542L30.0185 221.269L29.7335 221.555L29.449 221.269L23.7409 215.542L18.0323 209.815L17.7472 209.529L17.4622 209.815L11.7536 215.542L6.04549 221.269L5.76097 221.555L5.47595 221.269L-0.23216 215.542L-5.94077 209.815L-6.22529 209.529L-6.5103 209.815L-12.2189 215.542L-17.9275 221.269L-18.212 221.555L-18.4966 221.269L-24.2052 215.542L-29.9138 209.815L-30.1983 209.529L-30.4833 209.815L-36.1919 215.542L-41.9001 221.269L-42.1851 221.555L-42.4696 221.269L-48.1782 215.542L-53.8863 209.815L-54.1713 209.529L-54.4563 209.815L-60.1649 215.542L-65.8731 221.269L-66.1576 221.555L-66.4426 221.269L-72.1507 215.542L-77.8593 209.815L-78.1439 209.529L-78.4289 209.815L-84.1375 215.542L-89.8461 221.269L-90.1306 221.555L-90.4151 221.269L-96.1237 215.542L-101.832 209.815L-101.975 209.672Z" stroke="#DBDDEA" stroke-miterlimit="10"/>
<path fill-rule="evenodd" clip-rule="evenodd" d="M-101.975 233.731L-101.975 233.446L-101.832 233.303L-96.1237 227.576L-90.4151 221.849L-90.1306 221.562L-89.8461 221.849L-84.1375 227.576L-78.4289 233.303L-78.1439 233.588L-77.8593 233.303L-72.1507 227.576L-66.4426 221.849L-66.1576 221.562L-65.8731 221.849L-60.165 227.576L-54.4563 233.303L-54.1713 233.588L-53.8863 233.303L-48.1782 227.576L-42.4696 221.849L-42.1851 221.562L-41.9001 221.849L-36.1919 227.576L-30.4833 233.303L-30.1983 233.588L-29.9138 233.303L-24.2052 227.576L-18.4966 221.849L-18.212 221.562L-17.9275 221.849L-12.2189 227.576L-6.5103 233.303L-6.22529 233.588L-5.94077 233.303L-0.232161 227.576L5.47595 221.849L5.76097 221.562L6.04549 221.849L11.7536 227.576L17.4622 233.303L17.7472 233.588L18.0323 233.303L23.7409 227.576L29.449 221.849L29.7335 221.562L30.0185 221.849L35.7266 227.576L41.4352 233.303L41.7202 233.588L42.0048 233.303L47.7134 227.576L53.422 221.849L53.7065 221.562L53.991 221.849L59.6996 227.576L65.4083 233.303L65.6933 233.588L65.9778 233.303L71.6864 227.576L77.395 221.849L77.6795 221.562L77.9641 221.849L83.6722 227.576L89.3813 233.303L89.6658 233.588L89.9508 233.303L91.9763 231.271L91.9763 232.413L90.8049 233.588L91.9763 234.763L91.9763 235.906L89.9508 233.874L89.6658 233.588L89.3813 233.874L83.6722 239.601L77.9641 245.328L77.6795 245.614L77.395 245.328L71.6864 239.601L65.9778 233.874L65.6933 233.588L65.4083 233.874L59.6996 239.601L53.991 245.328L53.7065 245.614L53.422 245.328L47.7134 239.601L42.0048 233.874L41.7202 233.588L41.4352 233.874L35.7266 239.601L30.0185 245.328L29.7335 245.614L29.449 245.328L23.7409 239.601L18.0323 233.874L17.7472 233.588L17.4622 233.874L11.7536 239.601L6.04549 245.328L5.76097 245.614L5.47595 245.328L-0.23216 239.601L-5.94077 233.874L-6.22529 233.588L-6.5103 233.874L-12.2189 239.601L-17.9275 245.328L-18.212 245.614L-18.4966 245.328L-24.2052 239.601L-29.9138 233.874L-30.1983 233.588L-30.4833 233.874L-36.1919 239.601L-41.9001 245.328L-42.1851 245.614L-42.4696 245.328L-48.1782 239.601L-53.8863 233.874L-54.1713 233.588L-54.4563 233.874L-60.1649 239.601L-65.8731 245.328L-66.1576 245.614L-66.4426 245.328L-72.1507 239.601L-77.8593 233.874L-78.1439 233.588L-78.4289 233.874L-84.1375 239.601L-89.8461 245.328L-90.1306 245.614L-90.4151 245.328L-96.1237 239.601L-101.832 233.874L-101.975 233.731Z" stroke="#DBDDEA" stroke-miterlimit="10"/>
<path fill-rule="evenodd" clip-rule="evenodd" d="M-101.975 257.79L-101.975 257.504L-101.832 257.361L-96.1237 251.634L-90.4151 245.907L-90.1306 245.621L-89.8461 245.907L-84.1375 251.634L-78.4289 257.361L-78.1439 257.647L-77.8593 257.361L-72.1507 251.634L-66.4426 245.907L-66.1576 245.621L-65.8731 245.907L-60.165 251.634L-54.4563 257.361L-54.1713 257.647L-53.8863 257.361L-48.1782 251.634L-42.4696 245.907L-42.1851 245.621L-41.9001 245.907L-36.1919 251.634L-30.4833 257.361L-30.1983 257.647L-29.9138 257.361L-24.2052 251.634L-18.4966 245.907L-18.212 245.621L-17.9275 245.907L-12.2189 251.634L-6.5103 257.361L-6.22529 257.647L-5.94077 257.361L-0.232161 251.634L5.47595 245.907L5.76097 245.621L6.04549 245.907L11.7536 251.634L17.4622 257.361L17.7472 257.647L18.0323 257.361L23.7409 251.634L29.449 245.907L29.7335 245.621L30.0185 245.907L35.7266 251.634L41.4352 257.361L41.7202 257.647L42.0048 257.361L47.7134 251.634L53.422 245.907L53.7065 245.621L53.991 245.907L59.6996 251.634L65.4083 257.361L65.6933 257.647L65.9778 257.361L71.6864 251.634L77.395 245.907L77.6795 245.621L77.9641 245.907L83.6722 251.634L89.3813 257.361L89.6658 257.647L89.9508 257.361L91.9763 255.329L91.9763 256.471L90.8049 257.647L91.9763 258.822L91.9763 259.964L89.9508 257.933L89.6658 257.647L89.3813 257.933L83.6722 263.66L77.9641 269.387L77.6795 269.672L77.395 269.387L71.6864 263.66L65.9778 257.933L65.6933 257.647L65.4083 257.933L59.6996 263.66L53.991 269.387L53.7065 269.672L53.422 269.387L47.7134 263.66L42.0048 257.933L41.7202 257.647L41.4352 257.933L35.7266 263.66L30.0185 269.387L29.7335 269.672L29.449 269.387L23.7409 263.66L18.0323 257.933L17.7472 257.647L17.4622 257.933L11.7536 263.66L6.04549 269.387L5.76097 269.672L5.47595 269.387L-0.23216 263.66L-5.94077 257.933L-6.22529 257.647L-6.5103 257.933L-12.2189 263.66L-17.9275 269.387L-18.212 269.672L-18.4966 269.387L-24.2052 263.66L-29.9138 257.933L-30.1983 257.647L-30.4833 257.933L-36.1919 263.66L-41.9001 269.387L-42.1851 269.672L-42.4696 269.387L-48.1782 263.66L-53.8863 257.933L-54.1713 257.647L-54.4563 257.933L-60.1649 263.66L-65.8731 269.387L-66.1576 269.672L-66.4426 269.387L-72.1507 263.66L-77.8593 257.933L-78.1439 257.647L-78.4289 257.933L-84.1375 263.66L-89.8461 269.387L-90.1306 269.672L-90.4151 269.387L-96.1237 263.66L-101.832 257.933L-101.975 257.79Z" stroke="#DBDDEA" stroke-miterlimit="10"/>
<path fill-rule="evenodd" clip-rule="evenodd" d="M-101.975 281.848L-101.975 281.563L-101.832 281.42L-96.1237 275.693L-90.4151 269.966L-90.1306 269.68L-89.8461 269.966L-84.1375 275.693L-78.4289 281.42L-78.1439 281.706L-77.8593 281.42L-72.1507 275.693L-66.4426 269.966L-66.1576 269.68L-65.8731 269.966L-60.165 275.693L-54.4563 281.42L-54.1713 281.706L-53.8863 281.42L-48.1782 275.693L-42.4696 269.966L-42.1851 269.68L-41.9001 269.966L-36.1919 275.693L-30.4833 281.42L-30.1983 281.706L-29.9138 281.42L-24.2052 275.693L-18.4966 269.966L-18.212 269.68L-17.9275 269.966L-12.2189 275.693L-6.5103 281.42L-6.22529 281.706L-5.94077 281.42L-0.232161 275.693L5.47595 269.966L5.76097 269.68L6.04549 269.966L11.7536 275.693L17.4622 281.42L17.7472 281.706L18.0323 281.42L23.7409 275.693L29.449 269.966L29.7335 269.68L30.0185 269.966L35.7266 275.693L41.4352 281.42L41.7202 281.706L42.0048 281.42L47.7134 275.693L53.422 269.966L53.7065 269.68L53.991 269.966L59.6996 275.693L65.4083 281.42L65.6933 281.706L65.9778 281.42L71.6864 275.693L77.395 269.966L77.6795 269.68L77.9641 269.966L83.6722 275.693L89.3813 281.42L89.6658 281.706L89.9508 281.42L91.9763 279.388L91.9763 280.53L90.8049 281.706L91.9763 282.881L91.9763 284.023L89.9508 281.991L89.6658 281.706L89.3813 281.991L83.6722 287.718L77.9641 293.445L77.6795 293.731L77.395 293.445L71.6864 287.718L65.9778 281.991L65.6933 281.706L65.4083 281.991L59.6996 287.718L53.991 293.445L53.7065 293.731L53.422 293.445L47.7134 287.718L42.0048 281.991L41.7202 281.706L41.4352 281.991L35.7266 287.718L30.0185 293.445L29.7335 293.731L29.449 293.445L23.7409 287.718L18.0323 281.991L17.7472 281.706L17.4622 281.991L11.7536 287.718L6.04549 293.445L5.76097 293.731L5.47595 293.445L-0.23216 287.718L-5.94077 281.991L-6.22529 281.706L-6.5103 281.991L-12.2189 287.718L-17.9275 293.445L-18.212 293.731L-18.4966 293.445L-24.2052 287.718L-29.9138 281.991L-30.1983 281.706L-30.4833 281.991L-36.1919 287.718L-41.9001 293.445L-42.1851 293.731L-42.4696 293.445L-48.1782 287.718L-53.8863 281.991L-54.1713 281.706L-54.4563 281.991L-60.1649 287.718L-65.8731 293.445L-66.1576 293.731L-66.4426 293.445L-72.1507 287.718L-77.8593 281.991L-78.1439 281.706L-78.4289 281.991L-84.1375 287.718L-89.8461 293.445L-90.1306 293.731L-90.4151 293.445L-96.1237 287.718L-101.832 281.991L-101.975 281.848Z" stroke="#DBDDEA" stroke-miterlimit="10"/>
<path fill-rule="evenodd" clip-rule="evenodd" d="M-101.975 305.907L-101.975 305.621L-101.832 305.479L-96.1237 299.751L-90.4151 294.024L-90.1306 293.738L-89.8461 294.024L-84.1375 299.751L-78.4289 305.479L-78.1439 305.764L-77.8593 305.479L-72.1507 299.751L-66.4426 294.024L-66.1576 293.738L-65.8731 294.024L-60.165 299.751L-54.4563 305.479L-54.1713 305.764L-53.8863 305.479L-48.1782 299.751L-42.4696 294.024L-42.1851 293.738L-41.9001 294.024L-36.1919 299.751L-30.4833 305.479L-30.1983 305.764L-29.9138 305.479L-24.2052 299.751L-18.4966 294.024L-18.212 293.738L-17.9275 294.024L-12.2189 299.751L-6.5103 305.479L-6.22529 305.764L-5.94077 305.479L-0.232161 299.751L5.47595 294.024L5.76097 293.738L6.04549 294.024L11.7536 299.751L17.4622 305.479L17.7472 305.764L18.0323 305.479L23.7409 299.751L29.449 294.024L29.7335 293.738L30.0185 294.024L35.7266 299.751L41.4352 305.479L41.7202 305.764L42.0048 305.479L47.7134 299.751L53.422 294.024L53.7065 293.738L53.991 294.024L59.6996 299.751L65.4083 305.479L65.6933 305.764L65.9778 305.479L71.6864 299.751L77.395 294.024L77.6795 293.738L77.9641 294.024L83.6722 299.751L89.3813 305.479L89.6658 305.764L89.9508 305.479L91.9763 303.446L91.9763 304.589L90.8049 305.764L91.9763 306.939L91.9763 308.082L89.9508 306.05L89.6658 305.764L89.3813 306.05L83.6722 311.777L77.9641 317.504L77.6795 317.79L77.395 317.504L71.6864 311.777L65.9778 306.05L65.6933 305.764L65.4083 306.05L59.6996 311.777L53.991 317.504L53.7065 317.79L53.422 317.504L47.7134 311.777L42.0048 306.05L41.7202 305.764L41.4352 306.05L35.7266 311.777L30.0185 317.504L29.7335 317.79L29.449 317.504L23.7409 311.777L18.0323 306.05L17.7472 305.764L17.4622 306.05L11.7536 311.777L6.04549 317.504L5.76097 317.79L5.47595 317.504L-0.23216 311.777L-5.94077 306.05L-6.22529 305.764L-6.5103 306.05L-12.2189 311.777L-17.9275 317.504L-18.212 317.79L-18.4966 317.504L-24.2052 311.777L-29.9138 306.05L-30.1983 305.764L-30.4833 306.05L-36.1919 311.777L-41.9001 317.504L-42.1851 317.79L-42.4696 317.504L-48.1782 311.777L-53.8863 306.05L-54.1713 305.764L-54.4563 306.05L-60.1649 311.777L-65.8731 317.504L-66.1576 317.79L-66.4426 317.504L-72.1507 311.777L-77.8593 306.05L-78.1439 305.764L-78.4289 306.05L-84.1375 311.777L-89.8461 317.504L-90.1306 317.79L-90.4151 317.504L-96.1237 311.777L-101.832 306.05L-101.975 305.907Z" stroke="#DBDDEA" stroke-miterlimit="10"/>
<path fill-rule="evenodd" clip-rule="evenodd" d="M-101.975 329.966L-101.975 329.68L-101.832 329.537L-96.1237 323.81L-90.4151 318.083L-90.1306 317.797L-89.8461 318.083L-84.1375 323.81L-78.4289 329.537L-78.1439 329.823L-77.8593 329.537L-72.1507 323.81L-66.4426 318.083L-66.1576 317.797L-65.8731 318.083L-60.165 323.81L-54.4563 329.537L-54.1713 329.823L-53.8863 329.537L-48.1782 323.81L-42.4696 318.083L-42.1851 317.797L-41.9001 318.083L-36.1919 323.81L-30.4833 329.537L-30.1983 329.823L-29.9138 329.537L-24.2052 323.81L-18.4966 318.083L-18.212 317.797L-17.9275 318.083L-12.2189 323.81L-6.5103 329.537L-6.22529 329.823L-5.94077 329.537L-0.232161 323.81L5.47595 318.083L5.76097 317.797L6.04549 318.083L11.7536 323.81L17.4622 329.537L17.7472 329.823L18.0323 329.537L23.7409 323.81L29.449 318.083L29.7335 317.797L30.0185 318.083L35.7266 323.81L41.4352 329.537L41.7202 329.823L42.0048 329.537L47.7134 323.81L53.422 318.083L53.7065 317.797L53.991 318.083L59.6996 323.81L65.4083 329.537L65.6933 329.823L65.9778 329.537L71.6864 323.81L77.395 318.083L77.6795 317.797L77.9641 318.083L83.6722 323.81L89.3813 329.537L89.6658 329.823L89.9508 329.537L91.9763 327.505L91.9763 328.647L90.8049 329.823L91.9763 330.998L91.9763 332.14L89.9508 330.108L89.6658 329.823L89.3813 330.108L83.6722 335.835L77.9641 341.563L77.6795 341.848L77.395 341.563L71.6864 335.835L65.9778 330.108L65.6933 329.823L65.4083 330.108L59.6996 335.835L53.991 341.563L53.7065 341.848L53.422 341.563L47.7134 335.835L42.0048 330.108L41.7202 329.823L41.4352 330.108L35.7266 335.835L30.0185 341.563L29.7335 341.848L29.449 341.563L23.7409 335.835L18.0323 330.108L17.7472 329.823L17.4622 330.108L11.7536 335.835L6.04549 341.563L5.76097 341.848L5.47595 341.563L-0.23216 335.835L-5.94077 330.108L-6.22529 329.823L-6.5103 330.108L-12.2189 335.835L-17.9275 341.563L-18.212 341.848L-18.4966 341.563L-24.2052 335.835L-29.9138 330.108L-30.1983 329.823L-30.4833 330.108L-36.1919 335.835L-41.9001 341.563L-42.1851 341.848L-42.4696 341.563L-48.1782 335.835L-53.8863 330.108L-54.1713 329.823L-54.4563 330.108L-60.1649 335.835L-65.8731 341.563L-66.1576 341.848L-66.4426 341.563L-72.1507 335.835L-77.8593 330.108L-78.1439 329.823L-78.4289 330.108L-84.1375 335.835L-89.8461 341.563L-90.1306 341.848L-90.4151 341.563L-96.1237 335.835L-101.832 330.108L-101.975 329.966Z" stroke="#DBDDEA" stroke-miterlimit="10"/>
</g>
<g clip-path="url(#clip3_11167_18130)">
<path fill-rule="evenodd" clip-rule="evenodd" d="M286.025 17.2033L286.025 16.9178L286.168 16.775L291.876 11.0479L297.585 5.32073L297.869 5.03467L298.154 5.32073L303.863 11.0479L309.571 16.775L309.856 17.0606L310.141 16.775L315.849 11.0479L321.557 5.32073L321.842 5.03467L322.127 5.32073L327.835 11.0479L333.544 16.775L333.829 17.0606L334.114 16.775L339.822 11.0479L345.53 5.32073L345.815 5.03467L346.1 5.32073L351.808 11.0479L357.517 16.775L357.802 17.0606L358.086 16.775L363.795 11.0479L369.503 5.32073L369.788 5.03466L370.072 5.32073L375.781 11.0479L381.49 16.775L381.775 17.0605L382.059 16.775L387.768 11.0479L393.476 5.32073L393.761 5.03466L394.045 5.32073L399.754 11.0479L405.462 16.775L405.747 17.0605L406.032 16.775L411.741 11.0479L417.449 5.32073L417.734 5.03466L418.019 5.32073L423.727 11.0478L429.435 16.775L429.72 17.0605L430.005 16.775L435.713 11.0478L441.422 5.32072L441.707 5.03466L441.991 5.32072L447.7 11.0478L453.408 16.775L453.693 17.0605L453.978 16.775L459.686 11.0478L465.395 5.32072L465.68 5.03466L465.964 5.32072L471.672 11.0478L477.381 16.775L477.666 17.0605L477.951 16.775L479.976 14.7427L479.976 15.885L478.805 17.0605L479.976 18.2356L479.976 19.3779L477.951 17.3461L477.666 17.0605L477.381 17.3461L471.672 23.0732L465.964 28.8004L465.68 29.0859L465.395 28.8004L459.686 23.0732L453.978 17.3461L453.693 17.0605L453.408 17.3461L447.7 23.0732L441.991 28.8004L441.707 29.0859L441.422 28.8004L435.713 23.0732L430.005 17.3461L429.72 17.0605L429.435 17.3461L423.727 23.0732L418.019 28.8004L417.734 29.0859L417.449 28.8004L411.741 23.0732L406.032 17.3461L405.747 17.0605L405.462 17.3461L399.754 23.0732L394.045 28.8004L393.761 29.0859L393.476 28.8004L387.768 23.0732L382.059 17.3461L381.775 17.0605L381.49 17.3461L375.781 23.0732L370.072 28.8004L369.788 29.0859L369.503 28.8004L363.795 23.0733L358.086 17.3461L357.802 17.0606L357.517 17.3461L351.808 23.0733L346.1 28.8004L345.815 29.0859L345.53 28.8004L339.822 23.0733L334.114 17.3461L333.829 17.0606L333.544 17.3461L327.835 23.0733L322.127 28.8004L321.842 29.086L321.557 28.8004L315.849 23.0733L310.141 17.3461L309.856 17.0606L309.571 17.3461L303.863 23.0733L298.154 28.8004L297.869 29.086L297.585 28.8004L291.876 23.0733L286.168 17.3461L286.025 17.2033Z" stroke="#DBDDEA" stroke-miterlimit="10"/>
<path fill-rule="evenodd" clip-rule="evenodd" d="M286.025 41.2619L286.025 40.9764L286.168 40.8336L291.876 35.1064L297.585 29.3793L297.869 29.0933L298.154 29.3793L303.863 35.1064L309.571 40.8336L309.856 41.1191L310.141 40.8336L315.849 35.1064L321.557 29.3793L321.842 29.0933L322.127 29.3793L327.835 35.1064L333.544 40.8336L333.829 41.1191L334.114 40.8336L339.822 35.1064L345.53 29.3793L345.815 29.0933L346.1 29.3793L351.808 35.1064L357.517 40.8336L357.802 41.1191L358.086 40.8336L363.795 35.1064L369.503 29.3793L369.788 29.0933L370.072 29.3793L375.781 35.1064L381.49 40.8336L381.775 41.1191L382.059 40.8336L387.768 35.1064L393.476 29.3793L393.761 29.0933L394.045 29.3793L399.754 35.1064L405.462 40.8336L405.747 41.1191L406.032 40.8336L411.741 35.1064L417.449 29.3793L417.734 29.0933L418.019 29.3793L423.727 35.1064L429.435 40.8336L429.72 41.1191L430.005 40.8336L435.713 35.1064L441.422 29.3793L441.707 29.0933L441.991 29.3793L447.7 35.1064L453.408 40.8336L453.693 41.1191L453.978 40.8336L459.686 35.1064L465.395 29.3793L465.68 29.0933L465.964 29.3793L471.672 35.1064L477.381 40.8336L477.666 41.1191L477.951 40.8336L479.976 38.8013L479.976 39.9436L478.805 41.1191L479.976 42.2942L479.976 43.4365L477.951 41.4047L477.666 41.1191L477.381 41.4047L471.672 47.1318L465.964 52.859L465.68 53.1445L465.395 52.859L459.686 47.1318L453.978 41.4047L453.693 41.1191L453.408 41.4047L447.7 47.1318L441.991 52.859L441.707 53.1445L441.422 52.859L435.713 47.1318L430.005 41.4047L429.72 41.1191L429.435 41.4047L423.727 47.1318L418.019 52.859L417.734 53.1445L417.449 52.859L411.741 47.1318L406.032 41.4047L405.747 41.1191L405.462 41.4047L399.754 47.1318L394.045 52.859L393.761 53.1445L393.476 52.859L387.768 47.1318L382.059 41.4047L381.775 41.1191L381.49 41.4047L375.781 47.1318L370.072 52.859L369.788 53.1445L369.503 52.859L363.795 47.1318L358.086 41.4047L357.802 41.1191L357.517 41.4047L351.808 47.1318L346.1 52.859L345.815 53.1445L345.53 52.859L339.822 47.1318L334.114 41.4047L333.829 41.1191L333.544 41.4047L327.835 47.1318L322.127 52.859L321.842 53.1445L321.557 52.859L315.849 47.1318L310.141 41.4047L309.856 41.1191L309.571 41.4047L303.863 47.1318L298.154 52.859L297.869 53.1445L297.585 52.859L291.876 47.1318L286.168 41.4047L286.025 41.2619Z" stroke="#DBDDEA" stroke-miterlimit="10"/>
<path fill-rule="evenodd" clip-rule="evenodd" d="M286.025 65.3205L286.025 65.035L286.168 64.8922L291.876 59.165L297.585 53.4379L297.869 53.1519L298.154 53.4379L303.863 59.165L309.571 64.8922L309.856 65.1777L310.141 64.8922L315.849 59.165L321.557 53.4379L321.842 53.1519L322.127 53.4379L327.835 59.165L333.544 64.8922L333.829 65.1777L334.114 64.8922L339.822 59.165L345.53 53.4379L345.815 53.1519L346.1 53.4379L351.808 59.165L357.517 64.8922L357.802 65.1777L358.086 64.8922L363.795 59.165L369.503 53.4379L369.788 53.1519L370.072 53.4379L375.781 59.165L381.49 64.8922L381.775 65.1777L382.059 64.8922L387.768 59.165L393.476 53.4379L393.761 53.1519L394.045 53.4379L399.754 59.165L405.462 64.8922L405.747 65.1777L406.032 64.8922L411.741 59.165L417.449 53.4379L417.734 53.1518L418.019 53.4379L423.727 59.165L429.435 64.8922L429.72 65.1777L430.005 64.8922L435.713 59.165L441.422 53.4379L441.707 53.1518L441.991 53.4379L447.7 59.165L453.408 64.8922L453.693 65.1777L453.978 64.8922L459.686 59.165L465.395 53.4379L465.68 53.1518L465.964 53.4379L471.672 59.165L477.381 64.8922L477.666 65.1777L477.951 64.8922L479.976 62.8599L479.976 64.0022L478.805 65.1777L479.976 66.3528L479.976 67.4951L477.951 65.4633L477.666 65.1777L477.381 65.4633L471.672 71.1904L465.964 76.9176L465.68 77.2031L465.395 76.9176L459.686 71.1904L453.978 65.4633L453.693 65.1777L453.408 65.4633L447.7 71.1904L441.991 76.9176L441.707 77.2031L441.422 76.9176L435.713 71.1904L430.005 65.4633L429.72 65.1777L429.435 65.4633L423.727 71.1904L418.019 76.9176L417.734 77.2031L417.449 76.9176L411.741 71.1904L406.032 65.4633L405.747 65.1777L405.462 65.4633L399.754 71.1904L394.045 76.9176L393.761 77.2031L393.476 76.9176L387.768 71.1904L382.059 65.4633L381.775 65.1777L381.49 65.4633L375.781 71.1904L370.072 76.9176L369.788 77.2031L369.503 76.9176L363.795 71.1904L358.086 65.4633L357.802 65.1777L357.517 65.4633L351.808 71.1904L346.1 76.9176L345.815 77.2031L345.53 76.9176L339.822 71.1904L334.114 65.4633L333.829 65.1777L333.544 65.4633L327.835 71.1904L322.127 76.9176L321.842 77.2031L321.557 76.9176L315.849 71.1904L310.141 65.4633L309.856 65.1777L309.571 65.4633L303.863 71.1904L298.154 76.9176L297.869 77.2031L297.585 76.9176L291.876 71.1904L286.168 65.4633L286.025 65.3205Z" stroke="#DBDDEA" stroke-miterlimit="10"/>
<path fill-rule="evenodd" clip-rule="evenodd" d="M286.025 89.3791L286.025 89.0935L286.168 88.9508L291.876 83.2236L297.585 77.4965L297.869 77.2104L298.154 77.4965L303.863 83.2236L309.571 88.9508L309.856 89.2363L310.141 88.9508L315.849 83.2236L321.557 77.4965L321.842 77.2104L322.127 77.4965L327.835 83.2236L333.544 88.9508L333.829 89.2363L334.114 88.9508L339.822 83.2236L345.53 77.4965L345.815 77.2104L346.1 77.4965L351.808 83.2236L357.517 88.9508L357.802 89.2363L358.086 88.9508L363.795 83.2236L369.503 77.4965L369.788 77.2104L370.072 77.4965L375.781 83.2236L381.49 88.9508L381.775 89.2363L382.059 88.9508L387.768 83.2236L393.476 77.4965L393.761 77.2104L394.045 77.4965L399.754 83.2236L405.462 88.9508L405.747 89.2363L406.032 88.9508L411.741 83.2236L417.449 77.4965L417.734 77.2104L418.019 77.4965L423.727 83.2236L429.435 88.9508L429.72 89.2363L430.005 88.9508L435.713 83.2236L441.422 77.4965L441.707 77.2104L441.991 77.4965L447.7 83.2236L453.408 88.9508L453.693 89.2363L453.978 88.9508L459.686 83.2236L465.395 77.4965L465.68 77.2104L465.964 77.4965L471.672 83.2236L477.381 88.9508L477.666 89.2363L477.951 88.9508L479.976 86.9185L479.976 88.0608L478.805 89.2363L479.976 90.4114L479.976 91.5537L477.951 89.5219L477.666 89.2363L477.381 89.5219L471.672 95.249L465.964 100.976L465.68 101.262L465.395 100.976L459.686 95.249L453.978 89.5219L453.693 89.2363L453.408 89.5219L447.7 95.249L441.991 100.976L441.707 101.262L441.422 100.976L435.713 95.249L430.005 89.5219L429.72 89.2363L429.435 89.5219L423.727 95.249L418.019 100.976L417.734 101.262L417.449 100.976L411.741 95.249L406.032 89.5219L405.747 89.2363L405.462 89.5219L399.754 95.249L394.045 100.976L393.761 101.262L393.476 100.976L387.768 95.249L382.059 89.5219L381.775 89.2363L381.49 89.5219L375.781 95.249L370.072 100.976L369.788 101.262L369.503 100.976L363.795 95.249L358.086 89.5219L357.802 89.2363L357.517 89.5219L351.808 95.249L346.1 100.976L345.815 101.262L345.53 100.976L339.822 95.249L334.114 89.5219L333.829 89.2363L333.544 89.5219L327.835 95.249L322.127 100.976L321.842 101.262L321.557 100.976L315.849 95.249L310.141 89.5219L309.856 89.2363L309.571 89.5219L303.863 95.249L298.154 100.976L297.869 101.262L297.585 100.976L291.876 95.249L286.168 89.5219L286.025 89.3791Z" stroke="#DBDDEA" stroke-miterlimit="10"/>
<path fill-rule="evenodd" clip-rule="evenodd" d="M286.025 113.438L286.025 113.152L286.168 113.009L291.876 107.282L297.585 101.555L297.869 101.269L298.154 101.555L303.863 107.282L309.571 113.009L309.856 113.295L310.141 113.009L315.849 107.282L321.557 101.555L321.842 101.269L322.127 101.555L327.835 107.282L333.544 113.009L333.829 113.295L334.114 113.009L339.822 107.282L345.53 101.555L345.815 101.269L346.1 101.555L351.808 107.282L357.517 113.009L357.802 113.295L358.086 113.009L363.795 107.282L369.503 101.555L369.788 101.269L370.072 101.555L375.781 107.282L381.49 113.009L381.775 113.295L382.059 113.009L387.768 107.282L393.476 101.555L393.761 101.269L394.045 101.555L399.754 107.282L405.462 113.009L405.747 113.295L406.032 113.009L411.741 107.282L417.449 101.555L417.734 101.269L418.019 101.555L423.727 107.282L429.435 113.009L429.72 113.295L430.005 113.009L435.713 107.282L441.422 101.555L441.707 101.269L441.991 101.555L447.7 107.282L453.408 113.009L453.693 113.295L453.978 113.009L459.686 107.282L465.395 101.555L465.68 101.269L465.964 101.555L471.672 107.282L477.381 113.009L477.666 113.295L477.951 113.009L479.976 110.977L479.976 112.119L478.805 113.295L479.976 114.47L479.976 115.612L477.951 113.58L477.666 113.295L477.381 113.58L471.672 119.308L465.964 125.035L465.68 125.32L465.395 125.035L459.686 119.308L453.978 113.58L453.693 113.295L453.408 113.58L447.7 119.308L441.991 125.035L441.707 125.32L441.422 125.035L435.713 119.308L430.005 113.58L429.72 113.295L429.435 113.58L423.727 119.308L418.019 125.035L417.734 125.32L417.449 125.035L411.741 119.308L406.032 113.58L405.747 113.295L405.462 113.58L399.754 119.308L394.045 125.035L393.761 125.32L393.476 125.035L387.768 119.308L382.059 113.581L381.775 113.295L381.49 113.581L375.781 119.308L370.072 125.035L369.788 125.32L369.503 125.035L363.795 119.308L358.086 113.581L357.802 113.295L357.517 113.581L351.808 119.308L346.1 125.035L345.815 125.32L345.53 125.035L339.822 119.308L334.114 113.581L333.829 113.295L333.544 113.581L327.835 119.308L322.127 125.035L321.842 125.32L321.557 125.035L315.849 119.308L310.141 113.581L309.856 113.295L309.571 113.581L303.863 119.308L298.154 125.035L297.869 125.32L297.585 125.035L291.876 119.308L286.168 113.581L286.025 113.438Z" stroke="#DBDDEA" stroke-miterlimit="10"/>
<path fill-rule="evenodd" clip-rule="evenodd" d="M286.025 137.496L286.025 137.211L286.168 137.068L291.876 131.341L297.585 125.614L297.869 125.328L298.154 125.614L303.863 131.341L309.571 137.068L309.856 137.354L310.141 137.068L315.849 131.341L321.557 125.614L321.842 125.328L322.127 125.614L327.835 131.341L333.544 137.068L333.829 137.354L334.114 137.068L339.822 131.341L345.53 125.614L345.815 125.328L346.1 125.614L351.808 131.341L357.517 137.068L357.802 137.354L358.086 137.068L363.795 131.341L369.503 125.614L369.788 125.328L370.072 125.614L375.781 131.341L381.49 137.068L381.775 137.354L382.059 137.068L387.768 131.341L393.476 125.614L393.761 125.328L394.045 125.614L399.754 131.341L405.462 137.068L405.747 137.354L406.032 137.068L411.741 131.341L417.449 125.614L417.734 125.328L418.019 125.614L423.727 131.341L429.435 137.068L429.72 137.354L430.005 137.068L435.713 131.341L441.422 125.614L441.707 125.328L441.991 125.614L447.7 131.341L453.408 137.068L453.693 137.354L453.978 137.068L459.686 131.341L465.395 125.614L465.68 125.328L465.964 125.614L471.672 131.341L477.381 137.068L477.666 137.354L477.951 137.068L479.976 135.036L479.976 136.178L478.805 137.354L479.976 138.529L479.976 139.671L477.951 137.639L477.666 137.354L477.381 137.639L471.672 143.366L465.964 149.093L465.68 149.379L465.395 149.093L459.686 143.366L453.978 137.639L453.693 137.354L453.408 137.639L447.7 143.366L441.991 149.093L441.707 149.379L441.422 149.093L435.713 143.366L430.005 137.639L429.72 137.354L429.435 137.639L423.727 143.366L418.019 149.093L417.734 149.379L417.449 149.093L411.741 143.366L406.032 137.639L405.747 137.354L405.462 137.639L399.754 143.366L394.045 149.093L393.761 149.379L393.476 149.093L387.768 143.366L382.059 137.639L381.775 137.354L381.49 137.639L375.781 143.366L370.072 149.093L369.788 149.379L369.503 149.093L363.795 143.366L358.086 137.639L357.802 137.354L357.517 137.639L351.808 143.366L346.1 149.093L345.815 149.379L345.53 149.093L339.822 143.366L334.114 137.639L333.829 137.354L333.544 137.639L327.835 143.366L322.127 149.093L321.842 149.379L321.557 149.093L315.849 143.366L310.141 137.639L309.856 137.354L309.571 137.639L303.863 143.366L298.154 149.093L297.869 149.379L297.585 149.093L291.876 143.366L286.168 137.639L286.025 137.496Z" stroke="#DBDDEA" stroke-miterlimit="10"/>
<path fill-rule="evenodd" clip-rule="evenodd" d="M286.025 161.555L286.025 161.269L286.168 161.127L291.876 155.399L297.585 149.672L297.869 149.386L298.154 149.672L303.863 155.399L309.571 161.127L309.856 161.412L310.141 161.127L315.849 155.399L321.557 149.672L321.842 149.386L322.127 149.672L327.835 155.399L333.544 161.127L333.829 161.412L334.114 161.127L339.822 155.399L345.53 149.672L345.815 149.386L346.1 149.672L351.808 155.399L357.517 161.127L357.802 161.412L358.086 161.127L363.795 155.399L369.503 149.672L369.788 149.386L370.072 149.672L375.781 155.399L381.49 161.127L381.775 161.412L382.059 161.127L387.768 155.399L393.476 149.672L393.761 149.386L394.045 149.672L399.754 155.399L405.462 161.127L405.747 161.412L406.032 161.127L411.741 155.399L417.449 149.672L417.734 149.386L418.019 149.672L423.727 155.399L429.435 161.127L429.72 161.412L430.005 161.127L435.713 155.399L441.422 149.672L441.707 149.386L441.991 149.672L447.7 155.399L453.408 161.127L453.693 161.412L453.978 161.127L459.686 155.399L465.395 149.672L465.68 149.386L465.964 149.672L471.672 155.399L477.381 161.127L477.666 161.412L477.951 161.127L479.976 159.094L479.976 160.237L478.805 161.412L479.976 162.587L479.976 163.729L477.951 161.698L477.666 161.412L477.381 161.698L471.672 167.425L465.964 173.152L465.68 173.438L465.395 173.152L459.686 167.425L453.978 161.698L453.693 161.412L453.408 161.698L447.7 167.425L441.991 173.152L441.707 173.438L441.422 173.152L435.713 167.425L430.005 161.698L429.72 161.412L429.435 161.698L423.727 167.425L418.019 173.152L417.734 173.438L417.449 173.152L411.741 167.425L406.032 161.698L405.747 161.412L405.462 161.698L399.754 167.425L394.045 173.152L393.761 173.438L393.476 173.152L387.768 167.425L382.059 161.698L381.775 161.412L381.49 161.698L375.781 167.425L370.072 173.152L369.788 173.438L369.503 173.152L363.795 167.425L358.086 161.698L357.802 161.412L357.517 161.698L351.808 167.425L346.1 173.152L345.815 173.438L345.53 173.152L339.822 167.425L334.114 161.698L333.829 161.412L333.544 161.698L327.835 167.425L322.127 173.152L321.842 173.438L321.557 173.152L315.849 167.425L310.141 161.698L309.856 161.412L309.571 161.698L303.863 167.425L298.154 173.152L297.869 173.438L297.585 173.152L291.876 167.425L286.168 161.698L286.025 161.555Z" stroke="#DBDDEA" stroke-miterlimit="10"/>
<path fill-rule="evenodd" clip-rule="evenodd" d="M286.025 185.614L286.025 185.328L286.168 185.185L291.876 179.458L297.585 173.731L297.869 173.445L298.154 173.731L303.863 179.458L309.571 185.185L309.856 185.471L310.141 185.185L315.849 179.458L321.557 173.731L321.842 173.445L322.127 173.731L327.835 179.458L333.544 185.185L333.829 185.471L334.114 185.185L339.822 179.458L345.53 173.731L345.815 173.445L346.1 173.731L351.808 179.458L357.517 185.185L357.802 185.471L358.086 185.185L363.795 179.458L369.503 173.731L369.788 173.445L370.072 173.731L375.781 179.458L381.49 185.185L381.775 185.471L382.059 185.185L387.768 179.458L393.476 173.731L393.761 173.445L394.045 173.731L399.754 179.458L405.462 185.185L405.747 185.471L406.032 185.185L411.741 179.458L417.449 173.731L417.734 173.445L418.019 173.731L423.727 179.458L429.435 185.185L429.72 185.471L430.005 185.185L435.713 179.458L441.422 173.731L441.707 173.445L441.991 173.731L447.7 179.458L453.408 185.185L453.693 185.471L453.978 185.185L459.686 179.458L465.395 173.731L465.68 173.445L465.964 173.731L471.672 179.458L477.381 185.185L477.666 185.471L477.951 185.185L479.976 183.153L479.976 184.295L478.805 185.471L479.976 186.646L479.976 187.788L477.951 185.756L477.666 185.471L477.381 185.756L471.672 191.483L465.964 197.211L465.68 197.496L465.395 197.211L459.686 191.483L453.978 185.756L453.693 185.471L453.408 185.756L447.7 191.483L441.991 197.211L441.707 197.496L441.422 197.211L435.713 191.483L430.005 185.756L429.72 185.471L429.435 185.756L423.727 191.483L418.019 197.211L417.734 197.496L417.449 197.211L411.741 191.483L406.032 185.756L405.747 185.471L405.462 185.756L399.754 191.483L394.045 197.211L393.761 197.496L393.476 197.211L387.768 191.483L382.059 185.756L381.775 185.471L381.49 185.756L375.781 191.483L370.072 197.211L369.788 197.496L369.503 197.211L363.795 191.483L358.086 185.756L357.802 185.471L357.517 185.756L351.808 191.483L346.1 197.211L345.815 197.496L345.53 197.211L339.822 191.483L334.114 185.756L333.829 185.471L333.544 185.756L327.835 191.483L322.127 197.211L321.842 197.496L321.557 197.211L315.849 191.483L310.141 185.756L309.856 185.471L309.571 185.756L303.863 191.483L298.154 197.211L297.869 197.496L297.585 197.211L291.876 191.483L286.168 185.756L286.025 185.614Z" stroke="#DBDDEA" stroke-miterlimit="10"/>
<path fill-rule="evenodd" clip-rule="evenodd" d="M286.025 209.672L286.025 209.387L286.168 209.244L291.876 203.517L297.585 197.789L297.869 197.503L298.154 197.789L303.863 203.517L309.571 209.244L309.856 209.529L310.141 209.244L315.849 203.517L321.557 197.789L321.842 197.503L322.127 197.789L327.835 203.517L333.544 209.244L333.829 209.529L334.114 209.244L339.822 203.517L345.53 197.789L345.815 197.503L346.1 197.789L351.808 203.517L357.517 209.244L357.802 209.529L358.086 209.244L363.795 203.517L369.503 197.789L369.788 197.503L370.072 197.789L375.781 203.517L381.49 209.244L381.775 209.529L382.059 209.244L387.768 203.517L393.476 197.789L393.761 197.503L394.045 197.789L399.754 203.517L405.462 209.244L405.747 209.529L406.032 209.244L411.741 203.517L417.449 197.789L417.734 197.503L418.019 197.789L423.727 203.517L429.435 209.244L429.72 209.529L430.005 209.244L435.713 203.517L441.422 197.789L441.707 197.503L441.991 197.789L447.7 203.517L453.408 209.244L453.693 209.529L453.978 209.244L459.686 203.517L465.395 197.789L465.68 197.503L465.964 197.789L471.672 203.517L477.381 209.244L477.666 209.529L477.951 209.244L479.976 207.211L479.976 208.354L478.805 209.529L479.976 210.704L479.976 211.847L477.951 209.815L477.666 209.529L477.381 209.815L471.672 215.542L465.964 221.269L465.68 221.555L465.395 221.269L459.686 215.542L453.978 209.815L453.693 209.529L453.408 209.815L447.7 215.542L441.991 221.269L441.707 221.555L441.422 221.269L435.713 215.542L430.005 209.815L429.72 209.529L429.435 209.815L423.727 215.542L418.019 221.269L417.734 221.555L417.449 221.269L411.741 215.542L406.032 209.815L405.747 209.529L405.462 209.815L399.754 215.542L394.045 221.269L393.761 221.555L393.476 221.269L387.768 215.542L382.059 209.815L381.775 209.529L381.49 209.815L375.781 215.542L370.072 221.269L369.788 221.555L369.503 221.269L363.795 215.542L358.086 209.815L357.802 209.529L357.517 209.815L351.808 215.542L346.1 221.269L345.815 221.555L345.53 221.269L339.822 215.542L334.114 209.815L333.829 209.529L333.544 209.815L327.835 215.542L322.127 221.269L321.842 221.555L321.557 221.269L315.849 215.542L310.141 209.815L309.856 209.529L309.571 209.815L303.863 215.542L298.154 221.269L297.869 221.555L297.585 221.269L291.876 215.542L286.168 209.815L286.025 209.672Z" stroke="#DBDDEA" stroke-miterlimit="10"/>
<path fill-rule="evenodd" clip-rule="evenodd" d="M286.025 233.731L286.025 233.446L286.168 233.303L291.876 227.576L297.585 221.849L297.869 221.562L298.154 221.849L303.863 227.576L309.571 233.303L309.856 233.588L310.141 233.303L315.849 227.576L321.557 221.849L321.842 221.562L322.127 221.849L327.835 227.576L333.544 233.303L333.829 233.588L334.114 233.303L339.822 227.576L345.53 221.849L345.815 221.562L346.1 221.849L351.808 227.576L357.517 233.303L357.802 233.588L358.086 233.303L363.795 227.576L369.503 221.849L369.788 221.562L370.072 221.849L375.781 227.576L381.49 233.303L381.775 233.588L382.059 233.303L387.768 227.576L393.476 221.849L393.761 221.562L394.045 221.849L399.754 227.576L405.462 233.303L405.747 233.588L406.032 233.303L411.741 227.576L417.449 221.849L417.734 221.562L418.019 221.849L423.727 227.576L429.435 233.303L429.72 233.588L430.005 233.303L435.713 227.576L441.422 221.849L441.707 221.562L441.991 221.849L447.7 227.576L453.408 233.303L453.693 233.588L453.978 233.303L459.686 227.576L465.395 221.849L465.68 221.562L465.964 221.849L471.672 227.576L477.381 233.303L477.666 233.588L477.951 233.303L479.976 231.271L479.976 232.413L478.805 233.588L479.976 234.763L479.976 235.906L477.951 233.874L477.666 233.588L477.381 233.874L471.672 239.601L465.964 245.328L465.68 245.614L465.395 245.328L459.686 239.601L453.978 233.874L453.693 233.588L453.408 233.874L447.7 239.601L441.991 245.328L441.707 245.614L441.422 245.328L435.713 239.601L430.005 233.874L429.72 233.588L429.435 233.874L423.727 239.601L418.019 245.328L417.734 245.614L417.449 245.328L411.741 239.601L406.032 233.874L405.747 233.588L405.462 233.874L399.754 239.601L394.045 245.328L393.761 245.614L393.476 245.328L387.768 239.601L382.059 233.874L381.775 233.588L381.49 233.874L375.781 239.601L370.072 245.328L369.788 245.614L369.503 245.328L363.795 239.601L358.086 233.874L357.802 233.588L357.517 233.874L351.808 239.601L346.1 245.328L345.815 245.614L345.53 245.328L339.822 239.601L334.114 233.874L333.829 233.588L333.544 233.874L327.835 239.601L322.127 245.328L321.842 245.614L321.557 245.328L315.849 239.601L310.141 233.874L309.856 233.588L309.571 233.874L303.863 239.601L298.154 245.328L297.869 245.614L297.585 245.328L291.876 239.601L286.168 233.874L286.025 233.731Z" stroke="#DBDDEA" stroke-miterlimit="10"/>
<path fill-rule="evenodd" clip-rule="evenodd" d="M286.025 257.79L286.025 257.504L286.168 257.361L291.876 251.634L297.585 245.907L297.869 245.621L298.154 245.907L303.863 251.634L309.571 257.361L309.856 257.647L310.141 257.361L315.849 251.634L321.557 245.907L321.842 245.621L322.127 245.907L327.835 251.634L333.544 257.361L333.829 257.647L334.114 257.361L339.822 251.634L345.53 245.907L345.815 245.621L346.1 245.907L351.808 251.634L357.517 257.361L357.802 257.647L358.086 257.361L363.795 251.634L369.503 245.907L369.788 245.621L370.072 245.907L375.781 251.634L381.49 257.361L381.775 257.647L382.059 257.361L387.768 251.634L393.476 245.907L393.761 245.621L394.045 245.907L399.754 251.634L405.462 257.361L405.747 257.647L406.032 257.361L411.741 251.634L417.449 245.907L417.734 245.621L418.019 245.907L423.727 251.634L429.435 257.361L429.72 257.647L430.005 257.361L435.713 251.634L441.422 245.907L441.707 245.621L441.991 245.907L447.7 251.634L453.408 257.361L453.693 257.647L453.978 257.361L459.686 251.634L465.395 245.907L465.68 245.621L465.964 245.907L471.672 251.634L477.381 257.361L477.666 257.647L477.951 257.361L479.976 255.329L479.976 256.471L478.805 257.647L479.976 258.822L479.976 259.964L477.951 257.933L477.666 257.647L477.381 257.933L471.672 263.66L465.964 269.387L465.68 269.672L465.395 269.387L459.686 263.66L453.978 257.933L453.693 257.647L453.408 257.933L447.7 263.66L441.991 269.387L441.707 269.672L441.422 269.387L435.713 263.66L430.005 257.933L429.72 257.647L429.435 257.933L423.727 263.66L418.019 269.387L417.734 269.672L417.449 269.387L411.741 263.66L406.032 257.933L405.747 257.647L405.462 257.933L399.754 263.66L394.045 269.387L393.761 269.672L393.476 269.387L387.768 263.66L382.059 257.933L381.775 257.647L381.49 257.933L375.781 263.66L370.072 269.387L369.788 269.672L369.503 269.387L363.795 263.66L358.086 257.933L357.802 257.647L357.517 257.933L351.808 263.66L346.1 269.387L345.815 269.672L345.53 269.387L339.822 263.66L334.114 257.933L333.829 257.647L333.544 257.933L327.835 263.66L322.127 269.387L321.842 269.672L321.557 269.387L315.849 263.66L310.141 257.933L309.856 257.647L309.571 257.933L303.863 263.66L298.154 269.387L297.869 269.672L297.585 269.387L291.876 263.66L286.168 257.933L286.025 257.79Z" stroke="#DBDDEA" stroke-miterlimit="10"/>
<path fill-rule="evenodd" clip-rule="evenodd" d="M286.025 281.848L286.025 281.563L286.168 281.42L291.876 275.693L297.585 269.966L297.869 269.68L298.154 269.966L303.863 275.693L309.571 281.42L309.856 281.706L310.141 281.42L315.849 275.693L321.557 269.966L321.842 269.68L322.127 269.966L327.835 275.693L333.544 281.42L333.829 281.706L334.114 281.42L339.822 275.693L345.53 269.966L345.815 269.68L346.1 269.966L351.808 275.693L357.517 281.42L357.802 281.706L358.086 281.42L363.795 275.693L369.503 269.966L369.788 269.68L370.072 269.966L375.781 275.693L381.49 281.42L381.775 281.706L382.059 281.42L387.768 275.693L393.476 269.966L393.761 269.68L394.045 269.966L399.754 275.693L405.462 281.42L405.747 281.706L406.032 281.42L411.741 275.693L417.449 269.966L417.734 269.68L418.019 269.966L423.727 275.693L429.435 281.42L429.72 281.706L430.005 281.42L435.713 275.693L441.422 269.966L441.707 269.68L441.991 269.966L447.7 275.693L453.408 281.42L453.693 281.706L453.978 281.42L459.686 275.693L465.395 269.966L465.68 269.68L465.964 269.966L471.672 275.693L477.381 281.42L477.666 281.706L477.951 281.42L479.976 279.388L479.976 280.53L478.805 281.706L479.976 282.881L479.976 284.023L477.951 281.991L477.666 281.706L477.381 281.991L471.672 287.718L465.964 293.445L465.68 293.731L465.395 293.445L459.686 287.718L453.978 281.991L453.693 281.706L453.408 281.991L447.7 287.718L441.991 293.445L441.707 293.731L441.422 293.445L435.713 287.718L430.005 281.991L429.72 281.706L429.435 281.991L423.727 287.718L418.019 293.445L417.734 293.731L417.449 293.445L411.741 287.718L406.032 281.991L405.747 281.706L405.462 281.991L399.754 287.718L394.045 293.445L393.761 293.731L393.476 293.445L387.768 287.718L382.059 281.991L381.775 281.706L381.49 281.991L375.781 287.718L370.072 293.445L369.788 293.731L369.503 293.445L363.795 287.718L358.086 281.991L357.802 281.706L357.517 281.991L351.808 287.718L346.1 293.445L345.815 293.731L345.53 293.445L339.822 287.718L334.114 281.991L333.829 281.706L333.544 281.991L327.835 287.718L322.127 293.445L321.842 293.731L321.557 293.445L315.849 287.718L310.141 281.991L309.856 281.706L309.571 281.991L303.863 287.718L298.154 293.445L297.869 293.731L297.585 293.445L291.876 287.718L286.168 281.991L286.025 281.848Z" stroke="#DBDDEA" stroke-miterlimit="10"/>
<path fill-rule="evenodd" clip-rule="evenodd" d="M286.025 305.907L286.025 305.621L286.168 305.479L291.876 299.751L297.585 294.024L297.869 293.738L298.154 294.024L303.863 299.751L309.571 305.479L309.856 305.764L310.141 305.479L315.849 299.751L321.557 294.024L321.842 293.738L322.127 294.024L327.835 299.751L333.544 305.479L333.829 305.764L334.114 305.479L339.822 299.751L345.53 294.024L345.815 293.738L346.1 294.024L351.808 299.751L357.517 305.479L357.802 305.764L358.086 305.479L363.795 299.751L369.503 294.024L369.788 293.738L370.072 294.024L375.781 299.751L381.49 305.479L381.775 305.764L382.059 305.479L387.768 299.751L393.476 294.024L393.761 293.738L394.045 294.024L399.754 299.751L405.462 305.479L405.747 305.764L406.032 305.479L411.741 299.751L417.449 294.024L417.734 293.738L418.019 294.024L423.727 299.751L429.435 305.479L429.72 305.764L430.005 305.479L435.713 299.751L441.422 294.024L441.707 293.738L441.991 294.024L447.7 299.751L453.408 305.479L453.693 305.764L453.978 305.479L459.686 299.751L465.395 294.024L465.68 293.738L465.964 294.024L471.672 299.751L477.381 305.479L477.666 305.764L477.951 305.479L479.976 303.446L479.976 304.589L478.805 305.764L479.976 306.939L479.976 308.082L477.951 306.05L477.666 305.764L477.381 306.05L471.672 311.777L465.964 317.504L465.68 317.79L465.395 317.504L459.686 311.777L453.978 306.05L453.693 305.764L453.408 306.05L447.7 311.777L441.991 317.504L441.707 317.79L441.422 317.504L435.713 311.777L430.005 306.05L429.72 305.764L429.435 306.05L423.727 311.777L418.019 317.504L417.734 317.79L417.449 317.504L411.741 311.777L406.032 306.05L405.747 305.764L405.462 306.05L399.754 311.777L394.045 317.504L393.761 317.79L393.476 317.504L387.768 311.777L382.059 306.05L381.775 305.764L381.49 306.05L375.781 311.777L370.072 317.504L369.788 317.79L369.503 317.504L363.795 311.777L358.086 306.05L357.802 305.764L357.517 306.05L351.808 311.777L346.1 317.504L345.815 317.79L345.53 317.504L339.822 311.777L334.114 306.05L333.829 305.764L333.544 306.05L327.835 311.777L322.127 317.504L321.842 317.79L321.557 317.504L315.849 311.777L310.141 306.05L309.856 305.764L309.571 306.05L303.863 311.777L298.154 317.504L297.869 317.79L297.585 317.504L291.876 311.777L286.168 306.05L286.025 305.907Z" stroke="#DBDDEA" stroke-miterlimit="10"/>
<path fill-rule="evenodd" clip-rule="evenodd" d="M286.025 329.966L286.025 329.68L286.168 329.537L291.876 323.81L297.585 318.083L297.869 317.797L298.154 318.083L303.863 323.81L309.571 329.537L309.856 329.823L310.141 329.537L315.849 323.81L321.557 318.083L321.842 317.797L322.127 318.083L327.835 323.81L333.544 329.537L333.829 329.823L334.114 329.537L339.822 323.81L345.53 318.083L345.815 317.797L346.1 318.083L351.808 323.81L357.517 329.537L357.802 329.823L358.086 329.537L363.795 323.81L369.503 318.083L369.788 317.797L370.072 318.083L375.781 323.81L381.49 329.537L381.775 329.823L382.059 329.537L387.768 323.81L393.476 318.083L393.761 317.797L394.045 318.083L399.754 323.81L405.462 329.537L405.747 329.823L406.032 329.537L411.741 323.81L417.449 318.083L417.734 317.797L418.019 318.083L423.727 323.81L429.435 329.537L429.72 329.823L430.005 329.537L435.713 323.81L441.422 318.083L441.707 317.797L441.991 318.083L447.7 323.81L453.408 329.537L453.693 329.823L453.978 329.537L459.686 323.81L465.395 318.083L465.68 317.797L465.964 318.083L471.672 323.81L477.381 329.537L477.666 329.823L477.951 329.537L479.976 327.505L479.976 328.647L478.805 329.823L479.976 330.998L479.976 332.14L477.951 330.108L477.666 329.823L477.381 330.108L471.672 335.835L465.964 341.563L465.68 341.848L465.395 341.563L459.686 335.835L453.978 330.108L453.693 329.823L453.408 330.108L447.7 335.835L441.991 341.563L441.707 341.848L441.422 341.563L435.713 335.835L430.005 330.108L429.72 329.823L429.435 330.108L423.727 335.835L418.019 341.563L417.734 341.848L417.449 341.563L411.741 335.835L406.032 330.108L405.747 329.823L405.462 330.108L399.754 335.835L394.045 341.563L393.761 341.848L393.476 341.563L387.768 335.835L382.059 330.108L381.775 329.823L381.49 330.108L375.781 335.835L370.072 341.563L369.788 341.848L369.503 341.563L363.795 335.835L358.086 330.108L357.802 329.823L357.517 330.108L351.808 335.835L346.1 341.563L345.815 341.848L345.53 341.563L339.822 335.835L334.114 330.108L333.829 329.823L333.544 330.108L327.835 335.835L322.127 341.563L321.842 341.848L321.557 341.563L315.849 335.835L310.141 330.108L309.856 329.823L309.571 330.108L303.863 335.835L298.154 341.563L297.869 341.848L297.585 341.563L291.876 335.835L286.168 330.108L286.025 329.966Z" stroke="#DBDDEA" stroke-miterlimit="10"/>
</g>
</g>
<defs>
<linearGradient id="paint0_linear_11167_18130" x1="240" y1="0" x2="240" y2="320" gradientUnits="userSpaceOnUse">
<stop stop-color="#F9F9F9"/>
<stop offset="1" stop-color="#F9F9F9" stop-opacity="0"/>
</linearGradient>
<clipPath id="clip0_11167_18130">
<rect width="480" height="320" fill="white" transform="matrix(-1 0 0 1 480 0)"/>
</clipPath>
<clipPath id="clip1_11167_18130">
<rect width="385" height="194" fill="white" transform="matrix(4.37114e-08 1 1 -4.37114e-08 92 5)"/>
</clipPath>
<clipPath id="clip2_11167_18130">
<rect width="385" height="194" fill="white" transform="matrix(4.37114e-08 1 1 -4.37114e-08 -102 5)"/>
</clipPath>
<clipPath id="clip3_11167_18130">
<rect width="385" height="194" fill="white" transform="matrix(4.37114e-08 1 1 -4.37114e-08 286 5)"/>
</clipPath>
</defs>
</svg>
